<svg width="294" height="277" viewBox="0 0 294 277" fill="none" xmlns="http://www.w3.org/2000/svg">
<path d="M146.782 276.295C227.848 276.295 293.565 238.352 293.565 191.547C293.565 144.742 227.848 106.799 146.782 106.799C65.7167 106.799 0 144.742 0 191.547C0 238.352 65.7167 276.295 146.782 276.295Z" fill="#F5F5F5"/>
<path d="M243.565 233.108C266.563 233.108 285.206 222.343 285.206 209.065C285.206 195.787 266.563 185.022 243.565 185.022C220.567 185.022 201.924 195.787 201.924 209.065C201.924 222.343 220.567 233.108 243.565 233.108Z" fill="#E0E0E0"/>
<path d="M138.18 222.034L91.2051 194.904L144.899 163.905L191.88 191.03L138.18 222.034Z" fill="#E0E0E0"/>
<path d="M10.2686 213.643L70.8555 248.622L121.673 219.289L61.0862 184.311L10.2686 213.643Z" fill="#E0E0E0"/>
<path d="M99.8574 49.2316V45.788C99.8315 45.5891 99.7548 45.4001 99.6346 45.2395C99.5144 45.0789 99.3547 44.9519 99.1712 44.871L78.3787 32.9433C77.8832 32.6942 77.3363 32.5645 76.7817 32.5645C76.2271 32.5645 75.6802 32.6942 75.1847 32.9433L15.4274 67.2542C15.2438 67.3352 15.0842 67.4621 14.964 67.6227C14.8438 67.7834 14.7671 67.9723 14.7412 68.1713V71.6148C14.7665 71.814 14.843 72.0032 14.9633 72.1639C15.0836 72.3247 15.2435 72.4515 15.4274 72.5319L36.2136 84.4409C36.7092 84.69 37.2561 84.8197 37.8107 84.8197C38.3653 84.8197 38.9122 84.69 39.4077 84.4409L99.1649 50.1299C99.3489 50.0495 99.5088 49.9227 99.6291 49.762C99.7493 49.6013 99.8259 49.4121 99.8511 49.2129L99.8574 49.2316Z" fill="#F0F0F0"/>
<path d="M15.4273 69.0696L36.2135 80.9973C36.7081 81.2493 37.2554 81.3807 37.8105 81.3807C38.3656 81.3807 38.9129 81.2493 39.4075 80.9973L99.1648 46.6864C100.044 46.1811 100.044 45.3638 99.1648 44.8523L78.3786 32.9433C77.883 32.6942 77.3361 32.5645 76.7815 32.5645C76.2269 32.5645 75.68 32.6942 75.1845 32.9433L15.4273 67.2542C14.5477 67.7471 14.5477 68.5643 15.4273 69.0696Z" fill="#FAFAFA"/>
<path d="M37.8107 81.3838V84.8211C37.2549 84.8292 36.706 84.6984 36.2136 84.4406L15.4274 72.5441C15.2435 72.4636 15.0836 72.3368 14.9633 72.1761C14.843 72.0154 14.7665 71.8262 14.7412 71.627V68.1772C14.7534 68.0377 14.7983 67.9031 14.8722 67.7842C14.6289 68.2271 14.8098 68.7387 15.4274 69.0942L36.2136 81.0033C36.7046 81.2647 37.2545 81.3957 37.8107 81.3838Z" fill="#E0E0E0"/>
<path d="M48.9775 52.289L66.5884 62.3265L95.6779 45.6326L78.0732 35.5889L48.9775 52.289Z" fill="#E0E0E0"/>
<path d="M66.7877 61.565L49.8006 51.8144C50.242 50.3742 50.2092 48.8303 49.707 47.4102L66.588 57.0547C66.588 57.0547 66.9124 58.1214 66.7877 61.565Z" fill="white"/>
<path d="M65.7217 55.7009C66.1958 56.0073 66.5909 56.4211 66.8749 56.9089C67.1589 57.3967 67.3238 57.9447 67.3562 58.5082V61.7896C67.3562 62.8251 66.6201 63.2431 65.7217 62.7316L49.0029 53.0995V52.2885L65.5221 61.7085C66.0648 62.0204 66.5015 61.7646 66.5015 61.147V58.1027C66.4827 57.7646 66.3842 57.4357 66.214 57.143C66.0438 56.8502 65.8067 56.6019 65.5221 56.4183L49.0029 46.9672V46.0439L65.7217 55.7009Z" fill="#EBEBEB"/>
<path d="M49.0029 46.0751L78.0737 29.375L94.8112 38.9821C95.2865 39.2886 95.6824 39.7034 95.9664 40.1925C96.2505 40.6815 96.4148 41.2309 96.4456 41.7956V45.0957C96.4678 45.2975 96.4348 45.5015 96.3502 45.686C96.2657 45.8706 96.1326 46.0288 95.9653 46.1437L66.8758 62.8438C67.0401 62.7263 67.1704 62.5675 67.2536 62.3834C67.3369 62.1994 67.3701 61.9967 67.3499 61.7958V58.5081C67.3196 57.9441 67.1555 57.3955 66.8713 56.9073C66.5872 56.4192 66.191 56.0057 65.7155 55.7009L49.0029 46.0751Z" fill="#FAFAFA"/>
<path d="M66.875 56.8921C67.1716 57.3735 67.3371 57.924 67.3554 58.4891V61.7767C67.3755 61.9777 67.3423 62.1804 67.2591 62.3644C67.1758 62.5484 67.0455 62.7072 66.8812 62.8248L95.9707 46.1247C96.138 46.0097 96.2711 45.8516 96.3556 45.667C96.4402 45.4825 96.4732 45.2784 96.4511 45.0766V41.7953C96.4328 41.2302 96.2673 40.6796 95.9707 40.1982L66.875 56.8921Z" fill="#F0F0F0"/>
<path d="M31.0727 27.3037L30.9043 29.5246L50.5676 40.0736L51.0105 38.7761L31.0727 27.3037Z" fill="#EBEBEB"/>
<path d="M50.7489 39.2937L31.7032 28.3018L28.3906 30.2107L47.8106 41.5707L50.7489 39.2937Z" fill="white"/>
<path d="M44.2358 40.3916L42.3643 62.4629C42.3735 62.7121 42.4423 62.9554 42.5649 63.1725C42.6876 63.3896 42.8605 63.5741 43.0692 63.7106L54.1173 70.1049C54.2936 70.2024 54.49 70.2579 54.6913 70.2671L47.8291 42.313C47.6289 42.3021 47.4333 42.2489 47.2551 42.1571L46.4629 41.6954L44.2358 40.3916Z" fill="#E0E0E0"/>
<path d="M48.6531 42.1324L50.6244 40.4418L52.0655 39.1941C52.2152 38.9571 52.3899 38.7824 52.2963 38.5703L59.0712 66.3185C59.1647 66.5119 59.1897 66.9424 58.9214 67.1046L55.5091 70.0241C55.2508 70.1609 54.9575 70.2174 54.6669 70.1863L47.8047 42.2322C48.0912 42.2817 48.3859 42.247 48.6531 42.1324Z" fill="#F0F0F0"/>
<path d="M52.0716 38.389C52.4583 38.6136 52.3648 38.8632 52.0716 39.2L48.6529 42.1258C48.4354 42.2395 48.1935 42.2989 47.948 42.2989C47.7025 42.2989 47.4606 42.2395 47.2431 42.1258L44.2362 40.3916C43.8432 40.167 43.7745 39.8426 44.0802 39.6679C44.2811 39.5864 44.4979 39.5519 44.7142 39.5671C44.9304 39.5822 45.1403 39.6466 45.3279 39.7552L47.6985 41.1277C47.771 41.1644 47.8511 41.1835 47.9324 41.1835C48.0137 41.1835 48.0938 41.1644 48.1663 41.1277L50.6617 38.9567C50.7927 38.8819 50.7927 38.7633 50.6617 38.6885L31.0732 27.3035L32.009 26.7607L52.0716 38.389Z" fill="#FAFAFA"/>
<path d="M25.3965 28.3701L44.1303 39.1874V74.8334L25.3965 64.0099V28.3701Z" fill="#EBEBEB"/>
<path d="M43.5252 39.7806L25.3966 29.375C24.2878 30.5505 22.8358 31.3453 21.248 31.6458L39.227 42.0077C39.227 42.0077 40.3873 41.7332 43.5252 39.7806Z" fill="white"/>
<path d="M37.4862 41.9761C38.0265 42.2468 38.6224 42.3877 39.2267 42.3877C39.831 42.3877 40.4269 42.2468 40.9672 41.9761L44.0115 40.192C44.9722 39.6368 44.9722 38.7447 44.0115 38.1895L26.1511 27.9336L25.3962 28.3703L42.9697 38.5201C43.0993 38.5579 43.2131 38.6367 43.2941 38.7447C43.3751 38.8527 43.4189 38.984 43.4189 39.119C43.4189 39.254 43.3751 39.3853 43.2941 39.4933C43.2131 39.6013 43.0993 39.6801 42.9697 39.7179L40.1312 41.3523C39.807 41.5153 39.4492 41.6001 39.0863 41.6001C38.7235 41.6001 38.3656 41.5153 38.0414 41.3523L20.4742 31.1963L19.6133 31.6891L37.4862 41.9761Z" fill="#FAFAFA"/>
<path d="M19.6191 31.6895V67.3292L37.4858 77.5851C38.0261 77.8557 38.622 77.9966 39.2263 77.9966C39.8306 77.9966 40.4265 77.8557 40.9668 77.5851L44.0236 75.8321C44.2223 75.7444 44.3937 75.6049 44.52 75.4282C44.6462 75.2515 44.7225 75.0441 44.741 74.8277V39.188C44.7216 39.405 44.6434 39.6126 44.5148 39.7885C44.3862 39.9644 44.2121 40.1018 44.0111 40.1861L40.9668 41.9765C40.4265 42.2471 39.8306 42.388 39.2263 42.388C38.622 42.388 38.0261 42.2471 37.4858 41.9765L19.6191 31.6895Z" fill="#EBEBEB"/>
<path d="M39.2263 42.3566C39.832 42.3685 40.4308 42.2269 40.9668 41.9449L44.0112 40.1856C44.2098 40.0996 44.3814 39.9614 44.5077 39.7856C44.634 39.6099 44.7103 39.4032 44.7286 39.1875V74.8272C44.7101 75.0436 44.6338 75.251 44.5075 75.4278C44.3813 75.6045 44.2099 75.744 44.0112 75.8316L40.9544 77.5846C40.4183 77.8666 39.8195 78.0083 39.2139 77.9963L39.2263 42.3566Z" fill="#F0F0F0"/>
<path d="M189.721 171.734C189.628 170.156 189.416 168.266 189.16 166.07C188.205 157.735 186.902 146.319 190.358 135.383C192.46 128.727 197.525 120.835 205.436 118.646C207.195 118.159 211.449 117.442 213.084 121.216C213.314 121.761 213.451 122.341 213.489 122.932C213.658 125.327 212.579 127.442 211.381 129.37C210.002 131.609 208.405 133.736 206.858 135.807C205.398 137.766 203.882 139.788 202.56 141.884C201.131 144.161 199.88 146.545 198.817 149.014L198.311 148.796C199.373 146.302 200.624 143.893 202.054 141.59C203.383 139.476 204.905 137.442 206.378 135.477C207.912 133.418 209.497 131.297 210.869 129.083C212.017 127.211 213.053 125.209 212.897 122.969C212.863 122.441 212.741 121.922 212.535 121.434C211.075 118.059 207.157 118.733 205.542 119.176C197.844 121.31 192.897 129.033 190.838 135.545C187.419 146.375 188.717 157.723 189.665 166.007C189.915 168.21 190.133 170.112 190.227 171.703L189.721 171.734Z" fill="#3692E7"/>
<path d="M190.283 180.805C190.242 180.811 190.2 180.811 190.158 180.805C190.039 180.782 189.926 180.731 189.83 180.656C189.733 180.581 189.656 180.485 189.603 180.375C189.494 180.066 189.494 179.729 189.603 179.42C189.691 178.823 189.691 178.215 189.603 177.617C189.603 177.281 189.547 176.925 189.547 176.607V172.733C190.045 165.774 192.084 159.013 195.517 152.939C198.561 147.642 201.93 144.117 206.122 141.834C208.382 140.592 210.861 139.798 213.421 139.495C215.682 139.245 217.955 139.846 219.797 141.179C221.7 142.683 222.554 145.259 221.837 147.299C221.331 148.728 220.177 149.794 218.998 150.761C216.896 152.477 214.6 154.012 212.386 155.496C210.545 156.744 208.643 157.992 206.865 159.364C201.425 163.562 196.862 168.787 193.434 174.742C192.872 175.709 192.342 176.707 191.855 177.705L191.656 178.098C191.461 178.454 191.29 178.823 191.144 179.202C191.113 179.283 191.082 179.452 191.038 179.645C191.006 180.001 190.893 180.344 190.707 180.649C190.59 180.752 190.439 180.808 190.283 180.805ZM214.32 140.013C214.039 140.013 213.758 140.013 213.471 140.05C210.986 140.34 208.581 141.111 206.391 142.321C202.298 144.548 198.998 148.01 196.004 153.213C192.617 159.212 190.604 165.887 190.108 172.758V176.594C190.108 176.894 190.108 177.218 190.165 177.561C190.265 178.215 190.265 178.879 190.165 179.533C190.098 179.735 190.098 179.954 190.165 180.156C190.181 180.188 190.203 180.216 190.232 180.237C190.26 180.259 190.292 180.274 190.327 180.281C190.438 180.051 190.514 179.805 190.551 179.551C190.581 179.378 190.623 179.207 190.676 179.04C190.828 178.639 191.008 178.249 191.213 177.873L191.406 177.486C191.905 176.476 192.442 175.471 193.003 174.492C194.169 172.473 195.463 170.531 196.877 168.678C199.672 165.026 202.933 161.757 206.578 158.952C208.374 157.58 210.283 156.301 212.13 155.066C214.338 153.587 216.615 152.059 218.705 150.362C219.816 149.457 220.907 148.441 221.369 147.143C221.993 145.315 221.225 143.001 219.497 141.635C218.005 140.522 216.18 139.95 214.32 140.013Z" fill="#3692E7"/>
<path d="M189.814 175.477H189.746C189.711 175.469 189.677 175.454 189.648 175.433C189.619 175.412 189.594 175.385 189.576 175.354C189.557 175.324 189.545 175.289 189.54 175.254C189.535 175.218 189.537 175.182 189.546 175.147C194.693 154.622 208.922 145.465 216.521 143.287C216.59 143.268 216.665 143.277 216.728 143.312C216.791 143.347 216.837 143.405 216.858 143.475C216.877 143.545 216.869 143.62 216.834 143.684C216.799 143.748 216.74 143.796 216.671 143.818C209.185 145.957 195.167 154.997 190.083 175.278C190.065 175.335 190.03 175.386 189.982 175.422C189.933 175.458 189.875 175.477 189.814 175.477Z" fill="#3692E7"/>
<path d="M189.784 158.633C189.71 158.627 189.642 158.592 189.595 158.536C189.547 158.48 189.523 158.407 189.528 158.334C191.169 136.169 205.667 124.023 207.314 122.719C207.341 122.696 207.374 122.678 207.409 122.668C207.444 122.657 207.48 122.654 207.516 122.658C207.553 122.662 207.588 122.673 207.619 122.691C207.651 122.71 207.678 122.734 207.7 122.763C207.723 122.791 207.74 122.824 207.75 122.858C207.76 122.893 207.763 122.929 207.759 122.965C207.755 123.001 207.744 123.036 207.726 123.068C207.709 123.099 207.685 123.127 207.657 123.15C206.028 124.441 191.699 136.444 190.083 158.378C190.075 158.45 190.04 158.517 189.984 158.565C189.929 158.613 189.857 158.637 189.784 158.633Z" fill="#3692E7"/>
<path d="M188.055 81.334L153.363 61.3151C153.095 61.1225 152.781 61.0043 152.452 60.9726C152.123 60.9408 151.792 60.9965 151.492 61.1342L148.997 62.5752C148.722 62.7663 148.504 63.0273 148.365 63.3312C148.225 63.6351 148.17 63.9707 148.204 64.3033V159.257C148.255 160.182 148.523 161.083 148.987 161.885C149.451 162.687 150.098 163.368 150.874 163.874L185.56 183.868C185.827 184.061 186.141 184.181 186.47 184.213C186.799 184.246 187.13 184.192 187.431 184.055L189.926 182.608C190.197 182.416 190.413 182.155 190.55 181.852C190.687 181.55 190.741 181.216 190.706 180.886V85.9504C190.658 85.0268 190.393 84.1275 189.932 83.3255C189.471 82.5235 188.828 81.8412 188.055 81.334Z" fill="#263238"/>
<path d="M155.678 160.886L153.183 162.327V170.225C153.195 170.456 153.262 170.681 153.378 170.882C153.494 171.082 153.656 171.252 153.85 171.379L155.017 172.052C155.224 172.157 155.452 172.212 155.684 172.212C155.916 172.212 156.145 172.157 156.352 172.052L157.518 171.379C157.933 171.111 158.253 170.721 158.435 170.262L160.687 163.774L155.678 160.886Z" fill="#263238"/>
<path d="M153.183 170.225C153.195 170.456 153.262 170.681 153.378 170.882C153.494 171.082 153.656 171.253 153.85 171.379L155.017 172.053C155.097 172.102 155.188 172.131 155.282 172.14C155.376 172.149 155.47 172.136 155.558 172.103C155.647 172.07 155.726 172.018 155.791 171.95C155.856 171.881 155.905 171.799 155.934 171.71L158.173 165.215L153.183 162.327V170.225Z" fill="#37474F"/>
<path d="M180.706 175.29L178.211 176.737V184.629C178.222 184.861 178.288 185.086 178.403 185.288C178.518 185.49 178.679 185.661 178.872 185.789L180.045 186.463C180.251 186.568 180.478 186.622 180.709 186.622C180.94 186.622 181.168 186.568 181.374 186.463L182.547 185.789C182.961 185.521 183.282 185.131 183.464 184.673L185.709 178.178L180.706 175.29Z" fill="#263238"/>
<path d="M178.211 184.629C178.222 184.861 178.288 185.086 178.403 185.288C178.518 185.489 178.679 185.661 178.872 185.789L180.045 186.463C180.126 186.512 180.216 186.542 180.31 186.55C180.404 186.559 180.498 186.547 180.587 186.514C180.675 186.48 180.755 186.428 180.82 186.36C180.885 186.292 180.933 186.21 180.962 186.12L183.214 179.626L178.223 176.737L178.211 184.629Z" fill="#37474F"/>
<path d="M151.037 62.8308L185.722 82.7936C186.499 83.3004 187.146 83.983 187.609 84.7861C188.073 85.5892 188.342 86.4902 188.392 87.4162V182.37C188.458 182.704 188.418 183.05 188.278 183.359C188.137 183.669 187.904 183.927 187.609 184.097C187.315 184.266 186.974 184.34 186.636 184.307C186.298 184.273 185.978 184.135 185.722 183.911L151.037 163.911C150.261 163.405 149.616 162.723 149.153 161.921C148.69 161.119 148.423 160.219 148.373 159.295V64.3654C148.307 64.0325 148.346 63.687 148.486 63.3777C148.626 63.0684 148.86 62.8109 149.154 62.6414C149.448 62.4719 149.788 62.399 150.126 62.433C150.464 62.4669 150.783 62.6061 151.037 62.8308Z" fill="#37474F"/>
<path d="M100.668 192.621L138.185 214.28L190.712 183.956L188.211 182.508L150.693 160.849L100.668 189.732V192.621Z" fill="#455A64"/>
<path d="M138.186 214.28V211.392L190.713 181.067V183.956L138.186 214.28Z" fill="#263238"/>
<path d="M138.423 210.076L138.042 209.82C144.698 199.745 144.655 182.34 144.112 177.973C144.068 177.68 144.037 177.499 144.031 177.43L144.486 177.355C144.486 177.493 144.536 177.655 144.561 177.848C145.048 180.936 147.799 197.711 151.055 202.802L150.668 203.051C148.092 199.052 145.89 188.26 144.786 182.034C144.854 189.102 143.825 201.947 138.423 210.076Z" fill="#FAFAFA"/>
<path d="M160.332 194.692C159.765 194.523 146.502 190.506 145.279 184.654L145.735 184.561C146.895 190.144 160.326 194.211 160.463 194.255L160.332 194.692Z" fill="#FAFAFA"/>
<path d="M146.944 192.321L146.608 190.892C146.561 190.63 146.428 190.391 146.228 190.214C146.029 190.037 145.776 189.933 145.51 189.919C145.29 189.887 145.066 189.923 144.867 190.022C144.669 190.121 144.505 190.279 144.399 190.474L143.969 190.293C144.113 190.008 144.342 189.774 144.625 189.624C144.908 189.475 145.23 189.416 145.547 189.457C145.777 189.472 146 189.535 146.204 189.642C146.407 189.75 146.585 189.899 146.726 190.081C146.801 189.49 147.103 188.95 147.568 188.578C147.745 188.485 147.942 188.44 148.141 188.447C148.34 188.453 148.534 188.511 148.704 188.615L148.498 189.027C148.394 188.96 148.274 188.921 148.151 188.913C148.028 188.905 147.904 188.93 147.793 188.983C147.263 189.283 147.057 190.437 147.026 190.855L146.944 192.321Z" fill="#FAFAFA"/>
<path d="M148.248 197.081L147.836 195.784C147.369 194.318 146.589 193.475 145.666 193.419C145.28 193.412 144.9 193.517 144.573 193.722C144.246 193.927 143.986 194.223 143.825 194.573L143.407 194.374C143.605 193.936 143.927 193.566 144.335 193.312C144.743 193.057 145.217 192.93 145.697 192.945C146.252 192.976 147.206 193.276 147.918 194.723C148.074 193.581 148.541 191.747 149.745 190.98C150.178 190.743 150.663 190.622 151.156 190.627C151.649 190.633 152.132 190.765 152.559 191.011L152.366 191.429C152.008 191.218 151.603 191.102 151.188 191.092C150.772 191.082 150.362 191.179 149.995 191.373C148.392 192.371 148.286 195.671 148.286 195.709L148.248 197.081Z" fill="#FAFAFA"/>
<path d="M142.615 200.25L142.203 200.038C143.126 198.26 145.154 196.981 146.913 197.068C147.286 197.073 147.654 197.161 147.988 197.326C148.323 197.491 148.617 197.729 148.847 198.023C149.016 197.125 149.366 196.271 149.874 195.512C150.382 194.753 151.039 194.105 151.804 193.606C152.625 193.061 153.573 192.736 154.557 192.662C155.54 192.589 156.525 192.77 157.418 193.188L157.238 193.606C156.415 193.225 155.509 193.061 154.605 193.129C153.701 193.196 152.829 193.494 152.072 193.993C151.263 194.517 150.588 195.224 150.1 196.056C149.613 196.887 149.327 197.822 149.265 198.784V199.963L148.828 198.865C148.684 198.475 148.423 198.138 148.082 197.899C147.741 197.661 147.336 197.532 146.919 197.53C145.304 197.449 143.463 198.622 142.615 200.25Z" fill="#FAFAFA"/>
<path d="M140.082 207.137L139.677 206.913C140.238 205.89 143.226 200.749 146.764 199.82C147.263 199.677 147.787 199.641 148.301 199.715C148.815 199.79 149.307 199.972 149.745 200.25L149.508 200.643C149.122 200.399 148.688 200.239 148.236 200.173C147.783 200.108 147.322 200.138 146.882 200.263C144.287 200.949 141.604 204.393 140.082 207.137Z" fill="#FAFAFA"/>
<path d="M185.709 152.183V155.071L138.185 182.508L100.668 160.848V157.96L148.192 130.523L185.709 152.183Z" fill="#263238"/>
<path d="M185.709 152.183L138.185 179.619L100.668 157.96L148.192 130.523L185.709 152.183Z" fill="#455A64"/>
<path d="M185.709 120.418V123.3L138.185 150.742L100.668 129.077V126.194L148.192 98.752L185.709 120.418Z" fill="#263238"/>
<path d="M185.709 120.418L138.185 147.854L100.668 126.194L148.192 98.752L185.709 120.418Z" fill="#455A64"/>
<path d="M138.023 110.18L103.338 90.1861C103.07 89.9925 102.756 89.8732 102.427 89.8403C102.099 89.8075 101.767 89.8622 101.466 89.9989C101.017 90.2547 99.4203 91.1842 98.9712 91.44C98.6979 91.6318 98.481 91.8931 98.3428 92.197C98.2046 92.5008 98.1501 92.8361 98.1851 93.168V188.097C98.2361 189.022 98.5044 189.922 98.9683 190.725C99.4322 191.527 100.079 192.208 100.855 192.714L135.54 212.714C135.808 212.907 136.122 213.027 136.451 213.059C136.78 213.092 137.111 213.038 137.412 212.901C137.861 212.639 139.471 211.716 139.907 211.447C140.182 211.258 140.401 210.998 140.541 210.695C140.681 210.392 140.738 210.058 140.706 209.726V114.803C140.654 113.875 140.385 112.973 139.918 112.17C139.452 111.367 138.803 110.685 138.023 110.18Z" fill="#263238"/>
<path opacity="0.2" d="M138.186 124.752L140.694 123.305V114.634L138.18 116.081L138.186 124.752Z" fill="black"/>
<path opacity="0.2" d="M188.217 95.8692L190.725 94.4282V85.7568L188.211 87.2041L188.217 95.8692Z" fill="black"/>
<path d="M105.671 189.731L103.176 191.173V199.07C103.188 199.302 103.255 199.527 103.371 199.727C103.487 199.928 103.649 200.098 103.843 200.224L105.01 200.898C105.217 201.003 105.445 201.057 105.677 201.057C105.909 201.057 106.138 201.003 106.345 200.898L107.511 200.224C107.924 199.958 108.245 199.57 108.428 199.114L110.681 192.62L105.671 189.731Z" fill="#263238"/>
<path d="M103.17 199.071C103.183 199.302 103.25 199.527 103.366 199.728C103.482 199.928 103.643 200.098 103.837 200.225L105.004 200.898C105.085 200.947 105.175 200.977 105.269 200.986C105.363 200.995 105.457 200.982 105.546 200.949C105.634 200.916 105.713 200.863 105.779 200.795C105.844 200.727 105.892 200.645 105.921 200.555L108.173 194.061L103.182 191.173L103.17 199.071Z" fill="#37474F"/>
<path d="M130.681 204.174L128.186 205.615V213.513C128.197 213.744 128.263 213.968 128.378 214.169C128.493 214.37 128.653 214.54 128.847 214.667L130.02 215.34C130.225 215.445 130.453 215.5 130.684 215.5C130.915 215.5 131.143 215.445 131.348 215.34L132.521 214.667C132.932 214.398 133.252 214.011 133.438 213.556L135.684 207.062L130.681 204.174Z" fill="#263238"/>
<path d="M128.186 213.481C128.197 213.712 128.263 213.937 128.378 214.137C128.493 214.338 128.653 214.508 128.847 214.635L130.02 215.309C130.1 215.357 130.191 215.387 130.285 215.396C130.378 215.405 130.473 215.392 130.561 215.359C130.65 215.326 130.729 215.274 130.794 215.205C130.859 215.137 130.908 215.055 130.937 214.965L133.182 208.471L128.192 205.583L128.186 213.481Z" fill="#37474F"/>
<path d="M100.83 91.6336L135.522 111.627C136.298 112.135 136.943 112.817 137.406 113.621C137.869 114.424 138.136 115.325 138.185 116.25V214.28C138.185 214.28 136.258 213.138 135.522 212.714L100.836 192.714C100.06 192.208 99.4134 191.527 98.9495 190.725C98.4856 189.923 98.2173 189.022 98.1664 188.097V93.1682C98.0997 92.8353 98.1391 92.4898 98.2792 92.1805C98.4192 91.8712 98.6528 91.6136 98.9471 91.4441C99.2413 91.2746 99.5813 91.2017 99.9191 91.2357C100.257 91.2697 100.576 91.4088 100.83 91.6336Z" fill="#37474F"/>
<path opacity="0.2" d="M135.522 111.627L100.83 91.6336C100.576 91.4088 100.257 91.2697 99.9191 91.2357C99.5813 91.2017 99.2413 91.2746 98.9471 91.4441C98.6528 91.6136 98.4192 91.8712 98.2792 92.1805C98.1391 92.4898 98.0997 92.8353 98.1664 93.1682V101.646L138.185 124.728V116.25C138.136 115.325 137.869 114.424 137.406 113.621C136.943 112.817 136.298 112.135 135.522 111.627Z" fill="black"/>
<path d="M183.208 120.649C183.147 120.647 183.089 120.622 183.046 120.579C183.003 120.536 182.978 120.479 182.977 120.418V91.9336L155.809 107.617C155.783 107.633 155.755 107.644 155.725 107.649C155.695 107.654 155.664 107.653 155.635 107.645C155.606 107.637 155.578 107.624 155.554 107.605C155.531 107.586 155.511 107.563 155.497 107.536C155.481 107.51 155.471 107.481 155.466 107.45C155.462 107.42 155.463 107.389 155.471 107.36C155.479 107.33 155.492 107.302 155.51 107.278C155.529 107.254 155.552 107.233 155.578 107.218L183.127 91.3348C183.161 91.3132 183.201 91.3018 183.242 91.3018C183.283 91.3018 183.323 91.3132 183.357 91.3348C183.392 91.3554 183.42 91.3846 183.44 91.4197C183.46 91.4547 183.47 91.4942 183.47 91.5344V120.418C183.47 120.451 183.463 120.484 183.45 120.514C183.436 120.544 183.416 120.571 183.391 120.593C183.367 120.615 183.337 120.631 183.306 120.641C183.274 120.651 183.241 120.653 183.208 120.649Z" fill="#FAFAFA"/>
<path d="M178.205 113.424H178.137C178.077 113.411 178.025 113.375 177.993 113.323C177.96 113.272 177.949 113.209 177.962 113.15L182.616 92.9938L173.383 108.983C173.369 109.009 173.349 109.033 173.325 109.052C173.302 109.071 173.275 109.085 173.246 109.093C173.216 109.101 173.186 109.103 173.156 109.099C173.126 109.095 173.097 109.085 173.071 109.07C173.044 109.055 173.02 109.035 173.001 109.011C172.983 108.987 172.969 108.959 172.96 108.929C172.952 108.9 172.95 108.869 172.954 108.838C172.958 108.808 172.968 108.778 172.984 108.752L182.965 91.4217C182.994 91.3741 183.038 91.338 183.09 91.3198C183.143 91.3016 183.2 91.3023 183.252 91.3219C183.303 91.3428 183.345 91.3813 183.37 91.4305C183.396 91.4798 183.402 91.5364 183.389 91.5902L178.399 113.256C178.387 113.3 178.363 113.34 178.328 113.371C178.294 113.401 178.251 113.419 178.205 113.424Z" fill="#FAFAFA"/>
<path d="M168.205 106.232C168.173 106.232 168.142 106.225 168.113 106.213C168.083 106.2 168.058 106.181 168.036 106.157C167.994 106.114 167.97 106.056 167.97 105.995C167.97 105.934 167.994 105.876 168.036 105.833L183.046 91.3908C183.089 91.3481 183.147 91.3242 183.208 91.3242C183.269 91.3242 183.327 91.3481 183.37 91.3908C183.413 91.4351 183.437 91.4944 183.437 91.5561C183.437 91.6179 183.413 91.6772 183.37 91.7214L168.361 106.157C168.341 106.179 168.317 106.197 168.29 106.21C168.263 106.223 168.234 106.23 168.205 106.232Z" fill="#FAFAFA"/>
<path d="M183.208 116.038C183.147 116.036 183.089 116.011 183.047 115.968C183.004 115.926 182.979 115.868 182.977 115.807C182.977 112.027 178.76 111.771 178.579 111.765C178.545 111.762 178.512 111.752 178.482 111.736C178.452 111.72 178.425 111.698 178.404 111.671C178.385 111.644 178.371 111.614 178.365 111.582C178.358 111.549 178.359 111.516 178.367 111.484C178.521 110.712 178.469 109.912 178.216 109.167C177.963 108.421 177.518 107.755 176.926 107.236C176.71 107.02 176.45 106.852 176.163 106.745C175.877 106.637 175.572 106.592 175.267 106.612C175.104 106.639 174.949 106.701 174.812 106.794C174.675 106.887 174.56 107.007 174.474 107.148C174.448 107.194 174.407 107.229 174.359 107.248C174.31 107.268 174.256 107.27 174.206 107.254C174.156 107.239 174.113 107.207 174.084 107.164C174.054 107.121 174.04 107.069 174.044 107.017C174.044 106.874 174.3 103.511 171.343 103.181C171.305 103.176 171.268 103.162 171.237 103.14C171.205 103.119 171.18 103.09 171.162 103.056C171.145 103.023 171.136 102.987 171.136 102.95C171.136 102.913 171.145 102.876 171.162 102.844C171.162 102.844 172.472 100.392 171.966 99.188C171.908 99.0467 171.817 98.921 171.701 98.8213C171.585 98.7216 171.447 98.6506 171.299 98.6141C171.269 98.6063 171.242 98.5925 171.218 98.5736C171.194 98.5547 171.174 98.5311 171.159 98.5042C171.144 98.4774 171.136 98.4478 171.133 98.4174C171.13 98.3869 171.133 98.3562 171.143 98.3271C171.162 98.2693 171.202 98.2209 171.255 98.1919C171.309 98.1628 171.371 98.1554 171.43 98.1712C171.645 98.2265 171.844 98.3315 172.011 98.4778C172.178 98.6241 172.308 98.8075 172.391 99.0134C172.871 100.155 172.06 102.045 171.711 102.756C174.006 103.199 174.431 105.364 174.493 106.437C174.698 106.291 174.932 106.191 175.179 106.144C175.554 106.107 175.932 106.157 176.286 106.287C176.639 106.418 176.958 106.627 177.219 106.899C177.839 107.445 178.313 108.137 178.6 108.913C178.886 109.688 178.976 110.522 178.86 111.34C179.87 111.471 183.439 112.176 183.433 115.819C183.429 115.877 183.405 115.932 183.363 115.973C183.321 116.013 183.266 116.036 183.208 116.038Z" fill="#FAFAFA"/>
<path d="M183.209 109.813C183.15 109.813 183.094 109.791 183.052 109.752C183.009 109.712 182.982 109.658 182.978 109.601C182.878 108.278 182.111 106.569 181.144 106.144C180.952 106.059 180.74 106.031 180.532 106.064C180.325 106.097 180.132 106.19 179.977 106.332C179.939 106.356 179.894 106.369 179.849 106.369C179.804 106.369 179.759 106.356 179.721 106.332C179.682 106.31 179.649 106.277 179.628 106.237C179.607 106.197 179.598 106.152 179.603 106.107C179.603 106.107 179.809 103.768 178.754 102.801C178.526 102.61 178.255 102.476 177.964 102.411C177.673 102.346 177.371 102.351 177.082 102.426C177.043 102.435 177.001 102.432 176.963 102.419C176.924 102.406 176.89 102.383 176.864 102.352C176.837 102.32 176.819 102.282 176.812 102.242C176.804 102.201 176.807 102.16 176.82 102.121C177.033 101.541 177.444 99.9123 176.889 99.3322C176.627 99.0639 176.147 99.039 175.454 99.2636C175.407 99.2792 175.356 99.2791 175.309 99.2634C175.261 99.2477 175.221 99.2171 175.192 99.1762C175.164 99.1361 175.148 99.0882 175.148 99.039C175.148 98.9898 175.164 98.9418 175.192 98.9017C175.579 98.4151 176.533 96.9928 176.296 96.3128C176.257 96.2189 176.194 96.137 176.113 96.0757C176.032 96.0143 175.936 95.9755 175.835 95.9635C175.805 95.9562 175.777 95.9431 175.753 95.925C175.728 95.9069 175.708 95.8842 175.692 95.8581C175.677 95.832 175.666 95.8031 175.662 95.773C175.657 95.7429 175.659 95.7122 175.666 95.6827C175.672 95.653 175.684 95.6248 175.701 95.5999C175.718 95.575 175.741 95.5539 175.766 95.5381C175.792 95.5223 175.821 95.512 175.851 95.5079C175.881 95.5038 175.912 95.506 175.941 95.5143C176.116 95.5398 176.281 95.6109 176.42 95.7203C176.559 95.8298 176.667 95.9739 176.733 96.1381C176.989 96.8805 176.365 98.0096 175.928 98.6335C176.153 98.58 176.388 98.5821 176.612 98.6397C176.836 98.6974 177.042 98.8087 177.213 98.9641C177.9 99.6753 177.569 101.179 177.363 101.884C177.667 101.847 177.976 101.876 178.268 101.967C178.561 102.059 178.831 102.211 179.06 102.414C179.99 103.262 180.089 104.909 180.077 105.664C180.272 105.572 180.485 105.525 180.701 105.525C180.916 105.525 181.129 105.572 181.325 105.664C182.504 106.182 183.321 108.022 183.439 109.513C183.442 109.543 183.438 109.573 183.429 109.602C183.42 109.631 183.405 109.657 183.385 109.68C183.365 109.702 183.341 109.721 183.314 109.734C183.287 109.747 183.257 109.755 183.227 109.756L183.209 109.813Z" fill="#FAFAFA"/>
<path d="M196.645 81.4278C196.616 81.0966 196.498 80.7793 196.305 80.5084C196.112 80.2376 195.851 80.0231 195.547 79.887L158.36 58.4145C157.534 57.9963 156.62 57.7783 155.693 57.7783C154.767 57.7783 153.853 57.9963 153.027 58.4145L95.8333 91.4404C95.5299 91.5765 95.2682 91.791 95.0753 92.0619C94.8823 92.3327 94.765 92.6501 94.7354 92.9813V95.8696C94.765 96.2009 94.8823 96.5182 95.0753 96.789C95.2682 97.0599 95.5299 97.2744 95.8333 97.4105L133.02 118.877C133.846 119.298 134.76 119.517 135.687 119.517C136.614 119.517 137.528 119.298 138.354 118.877L195.547 85.8571C195.851 85.7209 196.112 85.5064 196.305 85.2356C196.498 84.9648 196.616 84.6474 196.645 84.3162V81.4278Z" fill="#37474F"/>
<path d="M133.021 115.988L95.8337 94.5222C94.3614 93.6675 94.3614 92.2888 95.8337 91.4404L153.027 58.4145C153.854 57.9963 154.767 57.7783 155.694 57.7783C156.62 57.7783 157.534 57.9963 158.361 58.4145L195.548 79.887C197.026 80.7416 197.026 82.1141 195.548 82.9687L138.354 115.988C137.528 116.41 136.615 116.629 135.687 116.629C134.76 116.629 133.846 116.41 133.021 115.988Z" fill="#455A64"/>
<path opacity="0.1" d="M188.211 90.0869L170.706 111.753L140.694 129.083L140.688 117.529L188.211 90.0869Z" fill="black"/>
<path opacity="0.1" d="M185.709 123.3L170.706 143.518L140.693 160.855V149.295L185.709 123.3Z" fill="black"/>
<path opacity="0.1" d="M185.709 155.072L170.706 175.291L140.693 192.627V181.067L185.709 155.072Z" fill="black"/>
<path d="M116.863 218.173L70.849 244.742L19.0332 214.754L65.0473 188.191L116.863 218.173Z" fill="#3692E7"/>
<path opacity="0.5" d="M116.863 218.173L70.849 244.742L19.0332 214.754L65.0473 188.191L116.863 218.173Z" fill="black"/>
<path d="M65.0473 152.177V188.191L19.0332 214.754V178.746L65.0473 152.177Z" fill="#3692E7"/>
<path opacity="0.23" d="M65.0473 152.177V188.191L19.0332 214.754V178.746L65.0473 152.177Z" fill="black"/>
<path d="M70.849 208.728V244.742L19.0332 214.754V178.746L70.849 208.728Z" fill="#3692E7"/>
<path opacity="0.38" d="M70.849 208.728V244.742L19.0332 214.754V178.746L70.849 208.728Z" fill="black"/>
<path d="M116.863 182.158V218.172L65.0469 188.191V152.177L116.863 182.158Z" fill="#3692E7"/>
<path opacity="0.4" d="M116.863 182.158V218.172L65.0469 188.191V152.177L116.863 182.158Z" fill="black"/>
<path d="M116.863 218.172V182.158L70.8486 208.727V244.741L116.863 218.172Z" fill="#3692E7"/>
<path opacity="0.23" d="M116.863 218.172V182.158L70.8486 208.727V244.741L116.863 218.172Z" fill="black"/>
<path d="M65.0469 152.177L65.1093 132.239L116.8 162.258L116.863 182.159L65.0469 152.177Z" fill="#3692E7"/>
<path opacity="0.2" d="M65.0469 152.177L65.1093 132.239L116.8 162.258L116.863 182.159L65.0469 152.177Z" fill="black"/>
<path d="M70.8486 208.727L75.1656 191.285L120.762 164.959L116.863 182.158L70.8486 208.727Z" fill="#3692E7"/>
<path opacity="0.3" d="M70.8486 208.727L75.1656 191.285L120.762 164.959L116.863 182.158L70.8486 208.727Z" fill="black"/>
<path d="M19.0327 178.746L13.543 160.655L59.5571 134.092L65.0469 152.177L19.0327 178.746Z" fill="#3692E7"/>
<path opacity="0.1" d="M19.0327 178.746L13.543 160.655L59.5571 134.092L65.0469 152.177L19.0327 178.746Z" fill="black"/>
<path d="M19.0329 178.746L8.20312 163.793L60.0252 193.775L70.8487 208.728L19.0329 178.746Z" fill="#3692E7"/>
<path opacity="0.45" d="M19.0329 178.746L8.20312 163.793L60.0252 193.775L70.8487 208.728L19.0329 178.746Z" fill="black"/>
<g opacity="0.7">
<path d="M84.3983 234.03C84.3233 234.03 84.2512 234.001 84.1976 233.948C84.1439 233.896 84.113 233.824 84.1113 233.749V227.411C84.1129 227.335 84.1437 227.263 84.1971 227.21C84.2506 227.156 84.3227 227.126 84.3983 227.124C84.4733 227.126 84.5447 227.157 84.5972 227.21C84.6497 227.264 84.679 227.336 84.679 227.411V233.749C84.679 233.824 84.6494 233.895 84.5968 233.948C84.5441 234 84.4728 234.03 84.3983 234.03Z" fill="white"/>
<path d="M83.5688 229.607C83.5316 229.613 83.4937 229.613 83.4565 229.607C83.3884 229.576 83.3349 229.52 83.3071 229.45C83.2793 229.381 83.2791 229.303 83.3068 229.233L84.3174 226.906L85.4403 228.204C85.4805 228.262 85.4978 228.333 85.489 228.403C85.4802 228.473 85.4459 228.537 85.3926 228.584C85.3393 228.63 85.2708 228.655 85.2002 228.654C85.1296 228.653 85.0618 228.626 85.0098 228.578L84.4796 227.954L83.8557 229.451C83.8288 229.503 83.7871 229.545 83.736 229.573C83.6849 229.601 83.6267 229.613 83.5688 229.607Z" fill="white"/>
<path d="M87.0122 232.539C86.9371 232.538 86.8658 232.507 86.8133 232.453C86.7608 232.399 86.7314 232.327 86.7314 232.252V225.92C86.7314 225.846 86.761 225.775 86.8137 225.722C86.8663 225.669 86.9377 225.64 87.0122 225.64C87.0866 225.64 87.158 225.669 87.2107 225.722C87.2633 225.775 87.2929 225.846 87.2929 225.92V232.246C87.2937 232.284 87.2871 232.321 87.2735 232.356C87.2598 232.392 87.2393 232.424 87.2133 232.451C87.1872 232.478 87.156 232.5 87.1215 232.515C87.087 232.53 87.0499 232.538 87.0122 232.539Z" fill="white"/>
<path d="M86.1826 228.116C86.1454 228.122 86.1075 228.122 86.0703 228.116C86.0361 228.101 86.0051 228.08 85.9793 228.053C85.9535 228.026 85.9333 227.994 85.92 227.959C85.9066 227.924 85.9003 227.887 85.9015 227.85C85.9027 227.813 85.9113 227.776 85.9268 227.742L86.9312 225.384L88.0541 226.675C88.1059 226.729 88.1349 226.8 88.1349 226.875C88.1349 226.949 88.1059 227.021 88.0541 227.074C88.028 227.101 87.9969 227.122 87.9626 227.136C87.9284 227.15 87.8916 227.158 87.8545 227.158C87.8173 227.158 87.7806 227.15 87.7463 227.136C87.712 227.122 87.681 227.101 87.6548 227.074L87.1246 226.451L86.5007 227.948C86.4749 228.008 86.4292 228.057 86.3714 228.088C86.3135 228.119 86.2469 228.129 86.1826 228.116Z" fill="white"/>
</g>
<g opacity="0.7">
<path d="M76.8565 238.329C76.7499 238.331 76.6446 238.305 76.5508 238.254C76.438 238.182 76.3467 238.081 76.2863 237.961C76.226 237.842 76.1988 237.708 76.2077 237.575V236.795C76.2093 236.72 76.2403 236.648 76.2939 236.596C76.3476 236.543 76.4196 236.514 76.4947 236.514C76.5691 236.514 76.6405 236.544 76.6932 236.596C76.7458 236.649 76.7754 236.72 76.7754 236.795V237.575C76.7754 237.687 76.7754 237.749 76.8315 237.762C76.8877 237.774 76.9189 237.762 77.0124 237.712C77.188 237.55 77.3264 237.351 77.4179 237.13C77.5094 236.91 77.552 236.672 77.5427 236.433V233.189C77.5427 233.114 77.5723 233.043 77.6249 232.99C77.6776 232.938 77.749 232.908 77.8234 232.908C77.8979 232.908 77.9693 232.938 78.0219 232.99C78.0746 233.043 78.1042 233.114 78.1042 233.189V236.433C78.1181 236.77 78.0525 237.105 77.9127 237.412C77.7729 237.718 77.5628 237.988 77.2994 238.198C77.1661 238.281 77.0132 238.326 76.8565 238.329Z" fill="white"/>
<path d="M73.8809 235.715V235.229C73.955 233.979 74.3202 232.765 74.9474 231.681C75.5745 230.598 76.4462 229.677 77.4929 228.99C78.516 228.404 79.4891 228.317 80.2377 228.753C80.637 229.027 80.9554 229.403 81.1595 229.842C81.3636 230.281 81.446 230.767 81.3981 231.249V231.411L73.8809 235.715ZM79.1897 229.015C78.6902 229.038 78.2049 229.189 77.7798 229.452C76.8829 230.042 76.1235 230.818 75.553 231.728C74.9825 232.637 74.6144 233.659 74.4735 234.723L80.8179 231.055C80.845 230.694 80.7782 230.332 80.6241 230.004C80.47 229.676 80.2338 229.393 79.9383 229.184C79.7078 229.063 79.4497 229.005 79.1897 229.015Z" fill="white"/>
</g>
<path opacity="0.7" d="M8.20312 163.793L60.0252 193.775L70.8487 208.728L59.4512 194.305L8.20312 163.793Z" fill="white"/>
<path opacity="0.7" d="M116.863 182.158L70.8486 208.727V244.741L71.7095 209.451L116.863 182.158Z" fill="white"/>
<path d="M49.3391 167.754C54.0865 167.067 58.4222 164.01 61.192 160.168C62.4837 158.372 63.4352 156.355 63.9993 154.216C64.5983 152.216 64.6969 150.1 64.2862 148.053C63.4316 144.628 60.2625 142.6 56.9125 142.176C55.2126 141.953 53.4841 142.121 51.8594 142.669C50.1749 143.247 48.7133 144.338 47.6797 145.788C47.0316 146.561 46.6239 147.506 46.5069 148.508C46.497 148.901 46.6353 149.282 46.8943 149.577C47.1533 149.872 47.514 150.058 47.9043 150.099C48.9088 150.184 49.9127 149.929 50.7552 149.375C51.7826 148.799 52.6875 148.028 53.419 147.105C54.9881 145.168 56.1623 142.943 56.8751 140.554C57.3752 138.505 57.3752 136.365 56.8751 134.316C56.4951 132.172 55.5153 130.18 54.0491 128.57C52.3683 127.042 50.2353 126.102 47.9729 125.894C45.7213 125.585 43.4287 125.798 41.2729 126.518C40.326 126.805 39.4488 127.285 38.6965 127.928C38.16 128.427 37.5486 129.25 37.767 130.061C37.9853 130.872 39.1706 131.234 39.9754 131.128C41.1664 130.905 42.2574 130.314 43.0945 129.438C44.0275 128.519 44.82 127.468 45.4464 126.318C45.9118 125.492 46.1547 124.559 46.1513 123.611C46.0702 119.656 41.6971 117.098 38.2723 116.374C37.3478 116.181 36.4008 116.118 35.4588 116.187C35.1406 116.187 35.334 116.711 35.5898 116.693C37.4328 116.609 39.2643 117.023 40.8924 117.89C42.4986 118.629 43.8477 119.83 44.7664 121.34C45.1759 122.085 45.378 122.926 45.3516 123.775C45.3253 124.624 45.0715 125.451 44.6167 126.169C44.0059 127.233 43.2453 128.203 42.3584 129.051C41.616 129.724 40.4869 130.504 39.4451 130.429C39.2731 130.429 39.1047 130.38 38.9591 130.289C38.8134 130.197 38.6965 130.066 38.6216 129.912C38.5902 129.707 38.6071 129.497 38.671 129.3C38.7349 129.103 38.8441 128.924 38.9897 128.776C39.5406 128.183 40.2219 127.726 40.9797 127.441C42.8513 126.663 44.8778 126.33 46.8999 126.468C48.9838 126.506 51.0105 127.157 52.7266 128.34C54.2215 129.581 55.2833 131.265 55.7584 133.149C56.3603 135.063 56.5474 137.084 56.3074 139.076C55.9369 141.08 55.1668 142.99 54.0429 144.69C52.8888 146.599 51.4415 148.433 49.2705 149.182C48.734 149.375 47.6111 149.656 47.399 148.876C47.1869 148.096 47.7983 147.136 48.1913 146.531C49.0604 145.163 50.3274 144.094 51.822 143.468C53.2643 142.889 54.8211 142.655 56.3698 142.781C59.308 143 62.29 144.534 63.3131 147.454C63.8263 149.199 63.8821 151.046 63.4753 152.819C63.1083 154.762 62.4098 156.627 61.4104 158.334C59.2606 161.959 56.0049 164.799 52.1214 166.437C51.1982 166.836 50.2499 167.173 49.283 167.485C49.1832 167.523 49.2268 167.772 49.3391 167.754Z" fill="#E0E0E0"/>
<path d="M29.507 113.592C27.0117 113.411 23.5743 115.377 24.797 116.811C26.0198 118.246 29.2637 115.926 29.2637 115.926C29.2637 115.926 28.958 118.826 30.0185 119.157C31.0791 119.488 32.5139 116.718 31.4534 114.946C31.9648 115.148 32.5189 115.217 33.0642 115.147C33.6095 115.077 34.1284 114.871 34.5726 114.547C36.0822 113.436 34.4852 112.388 32.3579 112.576C32.3579 112.576 33.8801 107.585 30.8046 108.539C29.2637 109.007 28.721 110.81 29.507 113.592Z" fill="#3692E7"/>
<path opacity="0.65" d="M29.507 113.592C27.0117 113.411 23.5743 115.377 24.797 116.811C26.0198 118.246 29.2637 115.926 29.2637 115.926C29.2637 115.926 28.958 118.826 30.0185 119.157C31.0791 119.488 32.5139 116.718 31.4534 114.946C31.9648 115.148 32.5189 115.217 33.0642 115.147C33.6095 115.077 34.1284 114.871 34.5726 114.547C36.0822 113.436 34.4852 112.388 32.3579 112.576C32.3579 112.576 33.8801 107.585 30.8046 108.539C29.2637 109.007 28.721 110.81 29.507 113.592Z" fill="white"/>
<path d="M31.8282 114.653C31.6901 114.518 31.5443 114.391 31.3915 114.272C31.1731 114.104 30.9423 113.942 30.724 113.78C30.5114 113.625 30.2883 113.485 30.0565 113.362C29.923 113.288 29.7855 113.221 29.6447 113.162C29.4503 113.071 29.2341 113.036 29.0209 113.062C28.965 113.064 28.9106 113.08 28.8633 113.11C28.816 113.14 28.7776 113.182 28.7521 113.232C28.7266 113.281 28.715 113.337 28.7183 113.393C28.7217 113.449 28.74 113.502 28.7714 113.549C28.9429 113.735 29.1569 113.876 29.3952 113.96L29.7321 114.141C29.9629 114.279 30.1687 114.435 30.3559 114.591C30.5431 114.747 30.7926 114.896 30.9797 115.052C31.3015 115.313 31.6613 115.524 32.0465 115.676C32.0638 115.685 32.083 115.69 32.1026 115.69C32.1222 115.69 32.1415 115.685 32.1588 115.676C32.4769 115.426 32.0091 114.834 31.8282 114.653Z" fill="#455A64"/>
<path d="M230.713 44.9643C227.987 48.6325 224.337 68.8011 222.959 75.2703C216.327 75.0769 207.456 74.7649 204.1 74.4156C200.357 74.0226 192.366 73.2553 188.442 73.7918C178.704 75.0394 179.084 81.44 179.321 83.1119C179.577 85.0208 180.943 85.8942 186.183 84.7027C187.356 84.445 188.551 84.3049 189.752 84.2847C190.257 84.2847 191.324 84.0289 191.723 84.4594C192.347 85.0832 190.544 86.1312 190.095 86.4182C189.402 86.8674 188.679 87.4351 188.535 88.246C188.494 88.3943 188.496 88.5513 188.542 88.6983C188.587 88.8454 188.674 88.9764 188.791 89.0757C189.045 89.1794 189.329 89.1794 189.583 89.0757C191.975 88.5081 194.282 87.6293 196.446 86.4619C197.261 85.9701 198.119 85.5526 199.01 85.2142C200.363 84.7775 201.761 85.0333 203.121 85.0333C206.046 85.0333 221.511 86.5679 228.386 87.2666C233.146 87.747 233.651 83.0495 235.292 78.2896C237.307 72.3881 242.079 41.3523 242.079 41.3523C237.263 40.6536 233.957 40.6099 230.713 44.9643Z" fill="#FFA8A7"/>
<path d="M242.154 40.866C239.852 40.4418 234.668 39.7992 231.848 42.9496C229.028 46.0999 228.361 49.4063 227.119 54.1786C225.878 58.951 223.676 67.4975 223.676 67.4975C223.676 67.4975 227.313 72.719 238.698 71.2405L242.154 40.866Z" fill="#37474F"/>
<path d="M270.744 205.821L262.74 205.827L260.438 188.453L270.538 188.054L270.744 205.821Z" fill="#FFA8A7"/>
<path d="M244.169 197.143C242.809 199.508 238.436 199.314 234.812 198.478L234.394 181.398L245.092 180.974L244.169 197.143Z" fill="#FFA8A7"/>
<path d="M270.202 96.0376C270.488 103.43 269.509 147.142 269.509 147.142C269.777 149.263 271.973 152.963 272.429 160.617C273.096 171.734 270.832 195.44 270.832 195.44C270.832 195.44 266.246 197.835 261.306 196.001C261.306 196.001 256.278 161.69 254.443 150.723C252.859 141.178 250.825 115.576 250.825 115.576L246.876 148.39C247.6 152.274 247.899 156.225 247.768 160.174C247.606 165.277 244.699 190.056 244.699 190.056C241.383 191.141 237.82 191.225 234.456 190.299C234.456 190.299 232.073 151.846 231.798 147.186C231.486 141.871 231.698 94.9521 231.698 94.9521L270.202 96.0376Z" fill="#3692E7"/>
<path opacity="0.2" d="M250.837 115.589C250.837 115.589 243.844 113.605 239.078 109.351C239.078 109.351 241.311 113.162 247.637 116.543L247.275 145.184L250.837 115.589Z" fill="black"/>
<path d="M253.62 220.312C253.364 220.574 253.514 222.302 253.826 222.752C254.138 223.201 256.047 224.723 259.36 224.835C262.522 224.935 265.317 224.399 267.12 223.151C268.923 221.903 269.771 220.574 269.877 218.784C269.983 216.994 269.715 215.253 270.501 213.837C271.244 212.533 272.448 211.042 272.691 210.337C273.234 208.809 272.572 206.682 272.572 206.682L253.62 220.312Z" fill="#263238"/>
<path d="M261.605 204.299C261.609 204.981 261.512 205.66 261.318 206.314C260.641 208.441 259.624 210.445 258.305 212.247C257.394 213.413 256.246 214.393 255.279 215.522C254.245 216.593 253.61 217.987 253.483 219.471C253.445 221.966 256.165 222.683 258.243 222.97C260.495 223.267 262.784 223.054 264.943 222.347C266.079 222.004 267.093 221.34 267.861 220.435C268.629 219.529 269.119 218.421 269.272 217.244C269.359 216.551 269.272 215.852 269.347 215.16C269.558 213.569 270.161 212.056 271.1 210.756C271.643 210.003 272.108 209.196 272.485 208.348C273.065 206.788 272.485 205.085 272.011 203.582C271.605 202.278 271.144 200.799 270.688 200.943C270.688 201.635 270.688 201.698 270.245 202.19C269.621 202.814 269.653 203.681 268.998 204.224C269.187 203.648 269.317 203.055 269.384 202.452C269.415 202.207 269.355 201.958 269.216 201.754C268.991 201.571 268.726 201.442 268.442 201.379C267.456 201.088 266.442 200.898 265.417 200.812C264.441 200.683 263.451 200.715 262.485 200.905C262.199 200.971 261.944 201.132 261.761 201.361C261.6 201.616 261.52 201.914 261.53 202.215C261.53 202.621 261.599 203.638 261.605 204.299Z" fill="#455A64"/>
<path d="M259.235 210.868C260.133 210.144 262.192 210.05 263.327 210.131C264.478 210.184 265.596 210.527 266.577 211.13C266.722 211.226 266.897 211.268 267.069 211.247C267.242 211.227 267.402 211.145 267.519 211.017C267.588 210.945 267.641 210.858 267.673 210.763C267.705 210.668 267.716 210.567 267.705 210.467C267.695 210.368 267.662 210.272 267.611 210.186C267.559 210.1 267.49 210.026 267.407 209.969C266.323 209.234 265.054 208.819 263.745 208.772C260.963 208.69 260.171 209.196 260.171 209.196C260.171 209.196 258.929 210.057 259.235 210.868Z" fill="#F5F5F5"/>
<path d="M257.214 213.488C258.343 212.758 260.62 212.764 261.749 212.864C262.881 212.936 263.974 213.303 264.918 213.931C265.062 214.027 265.235 214.068 265.407 214.048C265.579 214.027 265.737 213.946 265.854 213.818C265.924 213.746 265.978 213.66 266.011 213.565C266.044 213.47 266.056 213.369 266.046 213.269C266.036 213.169 266.004 213.073 265.952 212.987C265.901 212.9 265.831 212.827 265.748 212.77C264.646 211.997 263.349 211.548 262.005 211.473C259.216 211.385 258.518 211.978 258.518 211.978C258.201 212.115 257.919 212.322 257.693 212.584C257.467 212.845 257.304 213.154 257.214 213.488Z" fill="#F5F5F5"/>
<path d="M264.743 206.076C263.565 205.915 262.366 206.061 261.262 206.5C260.788 206.794 260.495 207.58 260.813 207.748C261.779 207.314 262.838 207.125 263.894 207.199C264.938 207.26 265.964 207.501 266.926 207.91C267.17 208.004 267.457 208.141 267.706 208.266C267.786 208.307 267.873 208.331 267.963 208.337C268.052 208.343 268.142 208.331 268.227 208.301C268.311 208.271 268.389 208.224 268.455 208.164C268.521 208.103 268.574 208.029 268.611 207.948C268.67 207.806 268.674 207.647 268.624 207.502C268.573 207.357 268.471 207.236 268.336 207.162C267.23 206.546 266.005 206.176 264.743 206.076Z" fill="#F5F5F5"/>
<path d="M216.52 207.799C216.237 208.512 216.237 209.306 216.52 210.019C216.795 210.687 220.101 212.758 224.692 212.671C228.107 212.588 231.437 211.593 234.337 209.789C236.14 208.716 237.968 208.585 240.238 208.541C242.509 208.497 245.541 207.53 246.09 206.495C246.639 205.459 246.152 203.606 246.152 203.606L216.52 207.799Z" fill="#263238"/>
<path d="M235.672 194.385L235.316 194.292C235.115 194.231 234.902 194.212 234.693 194.236C234.468 194.29 234.265 194.412 234.112 194.585C233.64 195.138 233.222 195.736 232.865 196.369C231.835 197.885 229.746 199.089 227.5 200.168C225.965 200.898 224.474 201.454 222.896 202.071C221.318 202.689 219.153 203.038 217.905 203.812C216.034 204.941 215.678 207.966 217.662 209.264C219.384 210.387 223.975 211.728 228.891 210.58C231.58 209.956 234.661 207.261 238.155 207.155C240.382 207.087 244.599 206.663 246.103 205.047C246.67 204.329 246.103 201.928 245.597 199.856C245.073 197.598 245.31 194.242 244.3 194.242L244.237 195.371C244.144 195.708 243.351 196.039 243.102 196.301L242.204 197.249C241.836 197.688 241.387 198.052 240.881 198.322C239.989 198.721 238.947 198.484 237.993 198.235C237.955 198.235 238.473 196.5 238.529 196.332C238.585 196.2 238.603 196.055 238.579 195.914C238.531 195.776 238.436 195.659 238.311 195.583C237.523 195.006 236.625 194.598 235.672 194.385Z" fill="#455A64"/>
<path d="M229.634 199.058C229.808 198.761 230.055 198.512 230.35 198.335C230.645 198.157 230.98 198.056 231.324 198.041C232.341 197.904 234.082 198.728 235.149 199.695C235.249 199.785 235.326 199.899 235.372 200.026C235.419 200.153 235.434 200.29 235.415 200.424C235.397 200.558 235.346 200.686 235.267 200.796C235.187 200.906 235.083 200.994 234.961 201.055C234.809 201.13 234.637 201.156 234.47 201.129C234.302 201.102 234.147 201.024 234.026 200.905C232.858 199.742 231.282 199.079 229.634 199.058Z" fill="#F5F5F5"/>
<path d="M226.427 200.662C226.661 200.363 226.963 200.124 227.308 199.967C227.653 199.81 228.032 199.738 228.411 199.757C228.411 199.757 231.043 199.957 232.596 201.554C232.692 201.641 232.766 201.751 232.81 201.873C232.855 201.995 232.869 202.126 232.852 202.254C232.834 202.383 232.786 202.506 232.712 202.612C232.637 202.718 232.537 202.804 232.422 202.864C232.275 202.935 232.109 202.96 231.947 202.935C231.785 202.909 231.635 202.834 231.517 202.72C230.878 202.017 230.088 201.466 229.207 201.11C228.326 200.753 227.375 200.6 226.427 200.662Z" fill="#F5F5F5"/>
<path d="M222.902 202.072C223.167 201.797 223.489 201.584 223.844 201.445C224.199 201.306 224.58 201.245 224.961 201.267C226.452 201.432 227.854 202.063 228.966 203.07C229.062 203.158 229.135 203.268 229.179 203.391C229.224 203.513 229.238 203.644 229.221 203.773C229.204 203.903 229.156 204.026 229.081 204.132C229.006 204.239 228.907 204.326 228.791 204.386C228.644 204.459 228.477 204.484 228.315 204.457C228.153 204.43 228.003 204.353 227.887 204.237C227.281 203.513 226.516 202.941 225.65 202.565C224.785 202.189 223.844 202.021 222.902 202.072Z" fill="#F5F5F5"/>
<path d="M255.492 41.0035C258.436 41.3404 261.917 41.5213 264.731 41.8894C268.355 42.3635 271.181 46.1127 272.067 51.9144C273.04 58.3025 268.948 76.6183 268.948 76.6183L270.251 98.2155C264.943 102.127 242.335 104.179 231.068 96.0446C231.068 96.0446 231.33 59.2881 232.21 53.6237C233.42 45.857 235.329 41.0347 244.063 40.4795L255.492 41.0035Z" fill="#455A64"/>
<path d="M275.623 87.7913C274.668 89.3884 273.708 90.9854 272.722 92.5637C272.36 93.1501 271.992 93.7303 271.612 94.3042C271.405 94.5851 271.164 94.8387 270.894 95.059C270.42 95.3834 269.434 95.1776 268.86 95.1963C266.041 95.2919 263.229 95.4999 260.426 95.8201C260.192 95.8128 259.958 95.857 259.743 95.9497C259.527 96.0424 259.335 96.1813 259.178 96.3566C259.063 96.5982 259.04 96.8735 259.114 97.1308C259.187 97.3881 259.352 97.6097 259.578 97.754C260.037 98.0296 260.558 98.1842 261.094 98.2032L263.527 98.4901C263.874 98.5018 264.211 98.6098 264.5 98.802C265.386 99.5194 263.695 100.38 263.19 100.73C262.174 101.436 261.089 102.038 259.952 102.526C254.88 104.66 254.263 106.207 255.198 107.966C256.009 109.495 259.515 115.053 268.424 110.268C272.011 108.34 277.469 102.252 279.958 99.3073C283.539 95.059 289.597 85.583 289.597 85.583C293.04 80.8543 293.483 78.9142 293.564 76.9491C293.645 74.984 282.959 59.8684 279.328 54.5596C275.698 49.2508 273.97 42.7941 264.731 41.9082C264.731 41.9082 261.212 53.0624 267.039 60.2802L280.495 79.0514C280.495 79.0514 276.933 85.6017 275.623 87.7913Z" fill="#FFA8A7"/>
<path d="M285.386 61.758C283.658 59.2627 281.855 56.6924 280.115 54.1472C272.784 43.4484 273.402 41.4896 262.834 41.3398C261.899 42.7747 261.343 48.9506 262.753 55.1516C263.932 60.3606 268.368 64.035 268.368 64.035L273.658 71.2029C273.658 71.2029 276.896 71.1031 280.776 68.2584C283.017 66.6886 284.646 64.3919 285.386 61.758Z" fill="#37474F"/>
<path d="M262.46 12.8866C261.928 12.095 261.192 11.4623 260.33 11.0559C259.468 10.6494 258.511 10.4844 257.563 10.5784L257.014 23.9722L256.115 28.9192L256.271 34.4277C256.793 34.354 257.287 34.1494 257.708 33.833C258.129 33.5167 258.463 33.0989 258.679 32.6186C259.503 31.034 261.798 23.3733 261.798 23.3733C263.857 17.0788 263.42 14.2341 262.46 12.8866Z" fill="#263238"/>
<path d="M256.39 24.0352C256.621 23.2211 257.067 22.4843 257.681 21.9017C258.448 21.0782 261.505 20.1861 262.896 22.7813C264.287 25.3764 261.942 28.8013 260.133 29.8493C257.818 31.1968 256.458 29.3627 256.458 29.3627L256.515 41.696C255.435 44.1913 250.563 46.4122 247.662 46.0628C245.354 45.7696 243.227 43.9543 245.292 41.3092L245.123 37.7908C245.123 37.7908 242.035 38.4146 240.507 38.2586C237.968 37.9966 236.277 36.0815 235.379 33.3865C233.932 29.0571 233.289 25.5386 233.9 16.8548C234.574 7.34133 245.572 6.69878 251.705 10.1424C257.837 13.5859 256.39 24.0352 256.39 24.0352Z" fill="#FFA8A7"/>
<path d="M230.401 6.973C230.12 4.89563 230.838 2.66854 233.015 1.93241C233.814 1.59818 234.691 1.4964 235.545 1.63877C236.399 1.78114 237.196 2.16189 237.843 2.73716C238.116 2.00428 238.588 1.36205 239.206 0.882644C239.824 0.403239 240.563 0.105662 241.341 0.0233538C242.119 -0.0589544 242.904 0.0772692 243.609 0.416716C244.313 0.756163 244.909 1.28538 245.329 1.94489C245.907 1.06651 246.801 0.443512 247.825 0.204386C248.456 0.063404 249.109 0.0503876 249.746 0.166108C250.382 0.281827 250.989 0.523935 251.53 0.878127C252.416 1.53315 253.458 2.74964 253.196 4.32794C254.949 3.62301 256.777 4.20941 258.08 5.75652C258.856 6.70392 259.295 7.88239 259.328 9.10652C259.373 9.74235 259.282 10.3805 259.06 10.978C258.81 11.5457 258.299 11.92 258.149 12.5626C257.931 13.1279 257.819 13.7284 257.818 14.3343C257.962 15.3823 258.193 16.4304 258.33 17.4534C258.478 18.4725 258.563 19.4995 258.586 20.529C258.553 20.7711 258.469 21.0033 258.339 21.21C258.208 21.4167 258.035 21.5929 257.831 21.7267C257.249 22.2361 256.797 22.8779 256.515 23.5982C256.296 24.0474 256.084 25.1578 255.654 25.4697C254.325 26.3993 254.175 23.3924 254.113 22.8122C254.027 21.4806 254.027 20.145 254.113 18.8134C253.443 18.8048 252.782 18.656 252.173 18.3766C251.564 18.0973 251.02 17.6936 250.576 17.1914C250.115 16.6272 249.812 15.9515 249.696 15.2326C249.624 14.8207 249.591 14.403 249.596 13.9849C248.729 15.4197 246.714 16.0061 245.279 15.8564C242.871 15.6381 242.042 14.6088 241.655 13.8539C241.503 14.598 241.175 15.2951 240.7 15.8876C240.085 16.4656 239.344 16.8928 238.536 17.1353C237.838 17.3214 237.103 17.314 236.41 17.114C235.716 16.9139 235.09 16.5288 234.599 15.9999C233.62 17.4035 231.137 16.7797 230.588 16.3867C229.34 15.4821 228.935 14.4029 228.798 12.862C228.66 11.3211 229.284 9.56192 230.994 8.9568C230.685 8.33373 230.485 7.66298 230.401 6.973Z" fill="#263238"/>
<path d="M245.123 37.7718C245.123 37.7718 250.7 36.3619 252.609 35.2141C253.738 34.5529 254.641 33.5656 255.198 32.3818C254.957 33.5495 254.484 34.6569 253.807 35.6383C252.459 37.5534 245.185 39.2752 245.185 39.2752L245.123 37.7718Z" fill="#F28F8F"/>
<path d="M245.436 23.6233C245.457 23.8596 245.547 24.0845 245.695 24.2701C245.842 24.4556 246.042 24.5936 246.267 24.6669C246.493 24.7402 246.735 24.7456 246.964 24.6824C247.192 24.6192 247.397 24.4901 247.553 24.3113C247.709 24.1325 247.809 23.9118 247.841 23.6767C247.872 23.4416 247.834 23.2024 247.731 22.9888C247.627 22.7753 247.463 22.5968 247.26 22.4756C247.056 22.3543 246.821 22.2957 246.584 22.307C246.258 22.3326 245.956 22.4848 245.741 22.7309C245.526 22.9769 245.417 23.2974 245.436 23.6233Z" fill="#263238"/>
<path d="M243.57 32.6505C243.598 32.9548 243.716 33.2441 243.907 33.4823C244.099 33.7205 244.356 33.8971 244.647 33.9903C244.938 34.0835 245.251 34.089 245.545 34.0063C245.839 33.9235 246.103 33.7561 246.302 33.5248C246.502 33.2936 246.63 33.0087 246.669 32.7055C246.709 32.4024 246.658 32.0944 246.524 31.8198C246.389 31.5452 246.177 31.3161 245.914 31.161C245.651 31.0059 245.347 30.9316 245.042 30.9474C244.622 30.9809 244.232 31.1784 243.957 31.4971C243.681 31.8158 243.542 32.2301 243.57 32.6505Z" fill="#F28F8F"/>
<path d="M246.439 19.4684L249.01 20.716C249.17 20.3637 249.188 19.9634 249.062 19.5978C248.935 19.2321 248.673 18.9289 248.33 18.7509C248.159 18.6694 247.974 18.6233 247.785 18.6155C247.596 18.6076 247.408 18.6381 247.231 18.7052C247.054 18.7723 246.893 18.8745 246.757 19.0056C246.621 19.1368 246.513 19.2942 246.439 19.4684Z" fill="#263238"/>
<path d="M235.261 20.5474L237.45 18.6759C237.336 18.5266 237.193 18.4022 237.029 18.3104C236.865 18.2186 236.684 18.1613 236.497 18.142C236.31 18.1228 236.121 18.1419 235.941 18.1983C235.762 18.2547 235.596 18.3472 235.454 18.47C235.162 18.7257 234.979 19.0837 234.943 19.4702C234.907 19.8567 235.021 20.2422 235.261 20.5474Z" fill="#263238"/>
<path d="M235.916 23.3801C235.931 23.6108 236.014 23.832 236.154 24.0157C236.294 24.1995 236.486 24.3376 236.705 24.4128C236.923 24.488 237.159 24.4968 237.383 24.4382C237.607 24.3796 237.808 24.2561 237.962 24.0834C238.116 23.9106 238.215 23.6963 238.247 23.4673C238.279 23.2383 238.243 23.0049 238.143 22.7964C238.043 22.5879 237.884 22.4136 237.685 22.2955C237.486 22.1773 237.257 22.1206 237.026 22.1324C236.714 22.1533 236.423 22.2957 236.216 22.5291C236.008 22.7624 235.9 23.068 235.916 23.3801Z" fill="#263238"/>
<path d="M241.704 21.9951L241.667 29.3751L237.762 28.2522L241.704 21.9951Z" fill="#F28F8F"/>
<path d="M231.904 32.3199C231.94 32.3119 231.974 32.2967 232.004 32.2753C232.034 32.2539 232.06 32.2266 232.079 32.1951C232.101 32.1643 232.117 32.1293 232.125 32.0922C232.133 32.0552 232.134 32.0168 232.127 31.9795C232.12 31.9422 232.105 31.9066 232.084 31.8751C232.063 31.8435 232.036 31.8166 232.004 31.7959L228.61 29.5376C228.579 29.5166 228.543 29.502 228.506 29.4947C228.469 29.4873 228.431 29.4875 228.394 29.495C228.357 29.5025 228.321 29.5173 228.29 29.5386C228.259 29.5598 228.232 29.587 228.211 29.6187C228.189 29.6499 228.174 29.6852 228.166 29.7226C228.158 29.7599 228.158 29.7984 228.166 29.8358C228.173 29.8731 228.188 29.9085 228.21 29.9399C228.232 29.9712 228.26 29.9978 228.292 30.018L231.68 32.2762C231.711 32.2996 231.748 32.3157 231.787 32.3232C231.826 32.3308 231.866 32.3296 231.904 32.3199Z" fill="#E0E0E0"/>
<path d="M231.543 33.7796C231.596 33.7664 231.644 33.7392 231.682 33.7007C231.721 33.6622 231.748 33.614 231.761 33.5612C231.778 33.486 231.765 33.4071 231.724 33.3417C231.683 33.2763 231.618 33.2297 231.543 33.2119L227.575 32.2948C227.538 32.2855 227.5 32.2837 227.462 32.2893C227.425 32.295 227.389 32.3081 227.356 32.3278C227.324 32.3475 227.295 32.3735 227.273 32.4043C227.251 32.435 227.235 32.4699 227.226 32.5069C227.209 32.5822 227.222 32.661 227.263 32.7264C227.304 32.7918 227.369 32.8385 227.444 32.8563L231.412 33.7796C231.455 33.7858 231.499 33.7858 231.543 33.7796Z" fill="#E0E0E0"/>
<path d="M227.855 36.4179H227.893L231.717 35.0205C231.789 34.994 231.847 34.94 231.88 34.8704C231.912 34.8008 231.915 34.7213 231.888 34.6493C231.862 34.5773 231.808 34.5188 231.738 34.4866C231.669 34.4545 231.589 34.4513 231.517 34.4777L227.693 35.8751C227.657 35.8883 227.624 35.9085 227.596 35.9345C227.568 35.9606 227.546 35.992 227.53 36.0268C227.514 36.0617 227.506 36.0994 227.505 36.1376C227.504 36.1758 227.511 36.2138 227.525 36.2494C227.551 36.3121 227.599 36.3634 227.659 36.3943C227.72 36.4251 227.789 36.4335 227.855 36.4179Z" fill="#E0E0E0"/>
<path d="M195.503 66.3431C195.582 66.5014 195.706 66.6331 195.858 66.7219C196.011 66.8107 196.187 66.8527 196.364 66.8428C196.54 66.8328 196.71 66.7713 196.852 66.6659C196.994 66.5605 197.102 66.4157 197.162 66.2496L200.007 59.2314C200.053 59.1189 200.076 58.9982 200.075 58.8766C200.073 58.755 200.047 58.635 199.998 58.5236C199.949 58.4123 199.878 58.312 199.79 58.2288C199.701 58.1455 199.597 58.0809 199.482 58.039C199.368 57.997 199.247 57.9785 199.125 57.9845C199.004 57.9906 198.885 58.021 198.776 58.0741C198.666 58.1272 198.569 58.2018 198.489 58.2934C198.409 58.3851 198.348 58.4919 198.31 58.6076L195.459 65.6257C195.417 65.7419 195.399 65.8656 195.407 65.989C195.414 66.1123 195.447 66.2329 195.503 66.3431Z" fill="#E0E0E0"/>
<path d="M190.819 66.306C190.909 66.4899 191.06 66.6375 191.246 66.7245C191.432 66.8116 191.641 66.8329 191.841 66.7851C192.04 66.7372 192.217 66.623 192.343 66.4611C192.469 66.2992 192.537 66.0994 192.534 65.8943L192.441 57.1606C192.422 56.9344 192.319 56.7236 192.152 56.57C191.985 56.4163 191.766 56.3311 191.539 56.3311C191.312 56.3311 191.094 56.4163 190.927 56.57C190.76 56.7236 190.657 56.9344 190.638 57.1606L190.725 65.8943C190.723 66.037 190.755 66.1781 190.819 66.306Z" fill="#E0E0E0"/>
<path d="M182.877 61.446L182.933 61.552L187.231 67.7904C187.364 67.9879 187.57 68.1249 187.804 68.1716C188.037 68.2183 188.28 68.171 188.479 68.0399C188.673 67.9037 188.807 67.6977 188.852 67.4651C188.897 67.2325 188.851 66.9913 188.722 66.7922L184.424 60.5539C184.299 60.3604 184.104 60.2224 183.88 60.1685C183.656 60.1146 183.42 60.1489 183.22 60.2642C183.021 60.3796 182.873 60.5673 182.808 60.7884C182.743 61.0095 182.765 61.2472 182.871 61.4522L182.877 61.446Z" fill="#E0E0E0"/>
</svg>
