<svg width="243" height="725" viewBox="0 0 243 725" fill="none" xmlns="http://www.w3.org/2000/svg">
<rect x="120.639" y="120.639" width="120.639" height="120.639" transform="rotate(180 120.639 120.639)" fill="#8EB5F0"/>
<path d="M120.639 120.639C104.796 120.639 89.1089 117.518 74.4723 111.456C59.8357 105.393 46.5366 96.5069 35.3343 85.3045C24.1319 74.1022 15.2457 60.803 9.18308 46.1665C3.12041 31.5299 0 15.8425 0 0L120.639 3.93072e-06L120.639 120.639Z" fill="white"/>
<rect x="240.639" y="724.639" width="120.639" height="120.639" transform="rotate(180 240.639 724.639)" fill="#8EB5F0"/>
<path d="M240.639 724.639C224.796 724.639 209.109 721.518 194.472 715.456C179.836 709.393 166.537 700.507 155.334 689.305C144.132 678.102 135.246 664.803 129.183 650.166C123.12 635.53 120 619.843 120 604L240.639 604L240.639 724.639Z" fill="white"/>
<rect width="120.639" height="120.639" transform="matrix(1 -4.37114e-08 -4.37114e-08 -1 121.445 120.639)" fill="#8EB5F0"/>
<rect width="60.3194" height="60.3194" transform="matrix(-0.707107 -0.707107 -0.707107 0.707107 223.988 60.3193)" fill="#4388C8"/>
<rect x="120.639" y="483" width="120.639" height="120.639" fill="#4388C8"/>
<circle r="45.2395" transform="matrix(-4.37114e-08 -1 -1 4.37114e-08 180.958 543.32)" fill="#FFA131"/>
<rect x="121.445" y="120.639" width="120.639" height="120.639" fill="#4388C8"/>
<rect x="121.445" y="238.262" width="6.03194" height="120.639" transform="rotate(-90 121.445 238.262)" fill="#1E1E1E"/>
<rect x="121.445" y="226.198" width="6.03194" height="120.639" transform="rotate(-90 121.445 226.198)" fill="#1E1E1E"/>
<rect x="121.445" y="214.134" width="6.03194" height="120.639" transform="rotate(-90 121.445 214.134)" fill="#1E1E1E"/>
<rect x="121.445" y="202.07" width="6.03194" height="120.639" transform="rotate(-90 121.445 202.07)" fill="#1E1E1E"/>
<rect x="121.445" y="190.006" width="6.03194" height="120.639" transform="rotate(-90 121.445 190.006)" fill="#1E1E1E"/>
<rect x="121.445" y="177.942" width="6.03194" height="120.639" transform="rotate(-90 121.445 177.942)" fill="#1E1E1E"/>
<rect x="121.445" y="165.878" width="6.03194" height="120.639" transform="rotate(-90 121.445 165.878)" fill="#1E1E1E"/>
<rect x="121.445" y="153.814" width="6.03194" height="120.639" transform="rotate(-90 121.445 153.814)" fill="#1E1E1E"/>
<rect x="121.445" y="141.75" width="6.03194" height="120.639" transform="rotate(-90 121.445 141.75)" fill="#1E1E1E"/>
<rect x="121.445" y="129.687" width="6.03194" height="120.639" transform="rotate(-90 121.445 129.687)" fill="#1E1E1E"/>
<rect y="361.917" width="120.639" height="120.639" fill="#4388C8"/>
<circle r="45.2395" transform="matrix(-4.37114e-08 -1 -1 4.37114e-08 60.3193 422.236)" fill="#FFA131"/>
<rect width="120.639" height="120.639" transform="matrix(-1 4.37114e-08 4.37114e-08 1 120.639 120.639)" fill="#FFA131"/>
<rect width="60.3194" height="120.639" transform="matrix(-1 4.37114e-08 4.37114e-08 1 120.639 120.639)" fill="#1E1E1E"/>
<rect width="60.3194" height="120.639" transform="matrix(-1 4.37114e-08 4.37114e-08 1 120.639 120.639)" fill="#1E1E1E"/>
<rect width="120.639" height="120.639" transform="matrix(-1 4.37114e-08 4.37114e-08 1 121.639 604)" fill="#FFA131"/>
<path d="M121.639 724.639L0.999898 724.639L121.639 604L121.639 724.639Z" fill="#1E1E1E"/>
<rect width="120.639" height="120.639" transform="matrix(-4.37114e-08 -1 -1 4.37114e-08 120.639 603.639)" fill="#4388C8"/>
<rect width="120.639" height="120.639" transform="matrix(1 -4.37114e-08 -4.37114e-08 -1 121.445 482.555)" fill="#8EB5F0"/>
<path d="M121.445 482.555C137.287 482.555 152.975 479.435 167.611 473.372C182.248 467.31 195.547 458.423 206.749 447.221C217.952 436.019 226.838 422.72 232.901 408.083C238.963 393.446 242.084 377.759 242.084 361.917L121.445 361.917L121.445 482.555Z" fill="white"/>
<rect width="120.639" height="120.639" transform="matrix(-1 4.37114e-08 4.37114e-08 1 120.639 241.277)" fill="#8EB5F0"/>
<rect width="30.1597" height="30.1597" transform="matrix(0.707107 0.707107 0.707107 -0.707107 39.2075 301.597)" fill="#4388C8"/>
<rect x="242.083" y="361.917" width="120.639" height="120.639" transform="rotate(180 242.083 361.917)" fill="#4388C8"/>
<circle r="30.1597" transform="matrix(4.37114e-08 1 1 -4.37114e-08 181.764 301.593)" fill="#FFA131"/>
</svg>
