<svg width="15" height="15" viewBox="0 0 15 15" fill="none" xmlns="http://www.w3.org/2000/svg">
<path d="M6.5625 12.4375V2.5625C6.5625 1.625 6.1625 1.25 5.16875 1.25H2.64375C1.65 1.25 1.25 1.625 1.25 2.5625V12.4375C1.25 13.375 1.65 13.75 2.64375 13.75H5.16875C6.1625 13.75 6.5625 13.375 6.5625 12.4375Z" stroke="white" stroke-linecap="round" stroke-linejoin="round"/>
<path d="M13.75 6.8125V2.5625C13.75 1.625 13.35 1.25 12.3563 1.25H9.83125C8.8375 1.25 8.4375 1.625 8.4375 2.5625V6.8125C8.4375 7.75 8.8375 8.125 9.83125 8.125H12.3563C13.35 8.125 13.75 7.75 13.75 6.8125Z" stroke="white" stroke-linecap="round" stroke-linejoin="round"/>
<path d="M13.75 12.4375V11.3125C13.75 10.375 13.35 10 12.3563 10H9.83125C8.8375 10 8.4375 10.375 8.4375 11.3125V12.4375C8.4375 13.375 8.8375 13.75 9.83125 13.75H12.3563C13.35 13.75 13.75 13.375 13.75 12.4375Z" stroke="white" stroke-linecap="round" stroke-linejoin="round"/>
</svg>
