<svg width="17" height="16" viewBox="0 0 17 16" fill="none" xmlns="http://www.w3.org/2000/svg">
<path d="M7.77253 1.4502H6.48639C3.27101 1.4502 1.98486 2.73634 1.98486 5.95172V9.81016C1.98486 13.0255 3.27101 14.3117 6.48639 14.3117H10.3448C13.5602 14.3117 14.8464 13.0255 14.8464 9.81016V8.52402" stroke="white" stroke-width="1.5" stroke-linecap="round" stroke-linejoin="round"/>
<path d="M11.0134 2.10558L5.94593 7.17301C5.75301 7.36593 5.56009 7.74535 5.5215 8.02187L5.24498 9.95752C5.14209 10.6585 5.63726 11.1472 6.33821 11.0507L8.27386 10.7742C8.54395 10.7356 8.92337 10.5427 9.12272 10.3498L14.1901 5.28237C15.0647 4.40779 15.4763 3.39173 14.1901 2.10558C12.904 0.819432 11.8879 1.231 11.0134 2.10558Z" stroke="white" stroke-width="1.5" stroke-miterlimit="10" stroke-linecap="round" stroke-linejoin="round"/>
<path d="M10.2871 2.83301C10.718 4.36996 11.9205 5.57251 13.4639 6.0098" stroke="white" stroke-width="1.5" stroke-miterlimit="10" stroke-linecap="round" stroke-linejoin="round"/>
</svg>
