<svg width="15" height="15" viewBox="0 0 15 15" fill="none" xmlns="http://www.w3.org/2000/svg">
<path d="M2.49257 9.16253L1.54258 8.21252C1.15508 7.82502 1.15508 7.18751 1.54258 6.80001L2.49257 5.85C2.65507 5.6875 2.78632 5.36874 2.78632 5.14374V3.79998C2.78632 3.24998 3.23633 2.79999 3.78633 2.79999H5.13007C5.35507 2.79999 5.67383 2.66876 5.83633 2.50626L6.78632 1.55625C7.17382 1.16875 7.81132 1.16875 8.19882 1.55625L9.14884 2.50626C9.31134 2.66876 9.63007 2.79999 9.85507 2.79999H11.1988C11.7488 2.79999 12.1988 3.24998 12.1988 3.79998V5.14374C12.1988 5.36874 12.3301 5.6875 12.4926 5.85L13.4426 6.80001C13.8301 7.18751 13.8301 7.82502 13.4426 8.21252L12.4926 9.16253C12.3301 9.32503 12.1988 9.64378 12.1988 9.86878V11.2125C12.1988 11.7625 11.7488 12.2125 11.1988 12.2125H9.85507C9.63007 12.2125 9.31134 12.3438 9.14884 12.5063L8.19882 13.4563C7.81132 13.8438 7.17382 13.8438 6.78632 13.4563L5.83633 12.5063C5.67383 12.3438 5.35507 12.2125 5.13007 12.2125H3.78633C3.23633 12.2125 2.78632 11.7625 2.78632 11.2125V9.86878C2.78632 9.63753 2.65507 9.31878 2.49257 9.16253Z" stroke="white" stroke-linecap="round" stroke-linejoin="round"/>
<path d="M5.625 9.375L9.375 5.625" stroke="white" stroke-linecap="round" stroke-linejoin="round"/>
<path d="M9.05907 9.0625H9.06468" stroke="white" stroke-linecap="round" stroke-linejoin="round"/>
<path d="M5.93407 5.9375H5.93968" stroke="white" stroke-linecap="round" stroke-linejoin="round"/>
</svg>
