<svg width="39" height="35" viewBox="0 0 39 35" fill="none" xmlns="http://www.w3.org/2000/svg">
<path d="M30.9407 22.107C27.7083 28.4485 19.1448 34.369 10.6113 34.9614C9.44015 35.003 8.26794 34.9203 7.11426 34.7148L10.8698 29.7565C18.6877 29.1551 26.3282 22.8016 27.2723 16.7969L30.9407 22.107Z" fill="#232C57"/>
<path d="M19.1117 1.5335C18.0741 1.14099 17.01 0.822462 15.9274 0.580317C12.3961 -0.193439 8.73918 -0.193439 5.20791 0.580317V0.541228L3.84579 0.926107C2.74608 1.23471 1.67152 1.62674 0.631444 2.09879L0 2.38444V27.988L5.20189 21.1263V5.94157C8.9278 4.88985 12.881 4.95887 16.5679 6.14003L19.8454 1.81915C19.6018 1.71992 19.3552 1.6207 19.1117 1.5335Z" fill="url(#paint0_linear_4890_1607)"/>
<path d="M23.601 0.577148L0.00610352 31.7103V34.9998H4.04133L27.7505 3.71332L23.601 0.577148Z" fill="#F7AE57"/>
<path d="M38.6233 24.079L34.3446 27.0318L30.7995 21.8991L26.1809 15.2058L24.1272 12.238L27.4348 7.875L38.6233 24.079Z" fill="#F7AE57"/>
<defs>
<linearGradient id="paint0_linear_4890_1607" x1="0.00601375" y1="13.994" x2="19.8424" y2="13.994" gradientUnits="userSpaceOnUse">
<stop stop-color="#F7AE57"/>
<stop offset="1" stop-color="#EC6447"/>
</linearGradient>
</defs>
</svg>