<svg width="524" height="453" viewBox="0 0 524 453" fill="none" xmlns="http://www.w3.org/2000/svg">
<rect x="403.361" y="120.639" width="120.639" height="120.639" transform="rotate(180 403.361 120.639)" fill="#8EB5F0"/>
<path d="M403.361 120.639C387.519 120.639 371.831 117.518 357.195 111.456C342.558 105.393 329.259 96.5069 318.057 85.3045C306.854 74.1022 297.968 60.803 291.905 46.1665C285.843 31.5299 282.722 15.8425 282.722 0L403.361 3.93072e-06L403.361 120.639Z" fill="white"/>
<rect x="40.6388" y="120.639" width="120.639" height="120.639" transform="rotate(180 40.6388 120.639)" fill="#8EB5F0"/>
<path d="M40.6388 120.639C24.7963 120.639 9.10889 117.518 -5.52768 111.456C-20.1643 105.393 -33.4634 96.5069 -44.6657 85.3045C-55.8681 74.1022 -64.7543 60.803 -70.8169 46.1665C-76.8796 31.5299 -80 15.8425 -80 0L40.6388 3.93072e-06L40.6388 120.639Z" fill="white"/>
<rect width="120.639" height="120.639" transform="matrix(1 -4.37114e-08 -4.37114e-08 -1 41.4448 120.639)" fill="#8EB5F0"/>
<rect width="60.3194" height="60.3194" transform="matrix(-0.707107 -0.707107 -0.707107 0.707107 143.988 60.3194)" fill="#4388C8"/>
<rect x="282.722" y="361.916" width="120.639" height="120.639" fill="#4388C8"/>
<circle r="45.2395" transform="matrix(-4.37114e-08 -1 -1 4.37114e-08 343.042 422.236)" fill="#FFA131"/>
<rect x="41.4448" y="120.639" width="120.639" height="120.639" fill="#4388C8"/>
<rect x="41.4448" y="238.262" width="6.03194" height="120.639" transform="rotate(-90 41.4448 238.262)" fill="#1E1E1E"/>
<rect x="41.4448" y="226.198" width="6.03194" height="120.639" transform="rotate(-90 41.4448 226.198)" fill="#1E1E1E"/>
<rect x="41.4448" y="214.134" width="6.03194" height="120.639" transform="rotate(-90 41.4448 214.134)" fill="#1E1E1E"/>
<rect x="41.4448" y="202.07" width="6.03194" height="120.639" transform="rotate(-90 41.4448 202.07)" fill="#1E1E1E"/>
<rect x="41.4448" y="190.006" width="6.03194" height="120.639" transform="rotate(-90 41.4448 190.006)" fill="#1E1E1E"/>
<rect x="41.4448" y="177.942" width="6.03194" height="120.639" transform="rotate(-90 41.4448 177.942)" fill="#1E1E1E"/>
<rect x="41.4448" y="165.878" width="6.03194" height="120.639" transform="rotate(-90 41.4448 165.878)" fill="#1E1E1E"/>
<rect x="41.4448" y="153.814" width="6.03194" height="120.639" transform="rotate(-90 41.4448 153.814)" fill="#1E1E1E"/>
<rect x="41.4448" y="141.751" width="6.03194" height="120.639" transform="rotate(-90 41.4448 141.751)" fill="#1E1E1E"/>
<rect x="41.4448" y="129.687" width="6.03194" height="120.639" transform="rotate(-90 41.4448 129.687)" fill="#1E1E1E"/>
<rect x="-80" y="361.916" width="120.639" height="120.639" fill="#4388C8"/>
<circle r="45.2395" transform="matrix(-4.37114e-08 -1 -1 4.37114e-08 -19.6806 422.236)" fill="#FFA131"/>
<rect x="403.361" width="120.639" height="120.639" fill="#4388C8"/>
<circle r="45.2395" transform="matrix(-4.37114e-08 -1 -1 4.37114e-08 463.681 60.3194)" fill="#FFA131"/>
<rect width="120.639" height="120.639" transform="matrix(-1 4.37114e-08 4.37114e-08 1 403.361 120.639)" fill="#FFA131"/>
<rect width="60.3194" height="120.639" transform="matrix(-1 4.37114e-08 4.37114e-08 1 403.361 120.639)" fill="#1E1E1E"/>
<rect width="60.3194" height="120.639" transform="matrix(-1 4.37114e-08 4.37114e-08 1 403.361 120.639)" fill="#1E1E1E"/>
<rect x="403.361" y="120.639" width="120.639" height="120.639" fill="#1E1E1E"/>
<circle r="45.2395" transform="matrix(-4.37114e-08 -1 -1 4.37114e-08 463.681 180.958)" fill="#FFA131"/>
<rect width="120.639" height="120.639" transform="matrix(1 -4.37114e-08 -4.37114e-08 -1 162.084 120.639)" fill="#4388C8"/>
<circle cx="171.735" cy="110.988" r="1.80958" transform="rotate(-90 171.735 110.988)" fill="#1E1E1E"/>
<circle cx="171.735" cy="98.3206" r="1.80958" transform="rotate(-90 171.735 98.3206)" fill="#1E1E1E"/>
<circle cx="171.735" cy="85.6535" r="1.80958" transform="rotate(-90 171.735 85.6535)" fill="#1E1E1E"/>
<circle cx="171.735" cy="72.9864" r="1.80958" transform="rotate(-90 171.735 72.9864)" fill="#1E1E1E"/>
<circle cx="171.735" cy="60.3194" r="1.80958" transform="rotate(-90 171.735 60.3194)" fill="#1E1E1E"/>
<circle cx="171.735" cy="47.6523" r="1.80958" transform="rotate(-90 171.735 47.6523)" fill="#1E1E1E"/>
<circle cx="171.735" cy="34.9852" r="1.80958" transform="rotate(-90 171.735 34.9852)" fill="#1E1E1E"/>
<circle cx="171.735" cy="22.3181" r="1.80958" transform="rotate(-90 171.735 22.3181)" fill="#1E1E1E"/>
<circle cx="171.735" cy="9.65111" r="1.80958" transform="rotate(-90 171.735 9.65111)" fill="#1E1E1E"/>
<circle cx="184.402" cy="110.988" r="1.80958" transform="rotate(-90 184.402 110.988)" fill="#1E1E1E"/>
<circle cx="184.402" cy="98.3206" r="1.80958" transform="rotate(-90 184.402 98.3206)" fill="#1E1E1E"/>
<circle cx="184.402" cy="85.6535" r="1.80958" transform="rotate(-90 184.402 85.6535)" fill="#1E1E1E"/>
<circle cx="184.402" cy="72.9864" r="1.80958" transform="rotate(-90 184.402 72.9864)" fill="#1E1E1E"/>
<circle cx="184.402" cy="60.3193" r="1.80958" transform="rotate(-90 184.402 60.3193)" fill="#1E1E1E"/>
<circle cx="184.402" cy="47.6523" r="1.80958" transform="rotate(-90 184.402 47.6523)" fill="#1E1E1E"/>
<circle cx="184.402" cy="34.9852" r="1.80958" transform="rotate(-90 184.402 34.9852)" fill="#1E1E1E"/>
<circle cx="184.402" cy="22.3181" r="1.80958" transform="rotate(-90 184.402 22.3181)" fill="#1E1E1E"/>
<circle cx="184.402" cy="9.65105" r="1.80958" transform="rotate(-90 184.402 9.65105)" fill="#1E1E1E"/>
<circle cx="197.069" cy="110.988" r="1.80958" transform="rotate(-90 197.069 110.988)" fill="#1E1E1E"/>
<circle cx="197.069" cy="98.3206" r="1.80958" transform="rotate(-90 197.069 98.3206)" fill="#1E1E1E"/>
<circle cx="197.069" cy="85.6535" r="1.80958" transform="rotate(-90 197.069 85.6535)" fill="#1E1E1E"/>
<circle cx="197.069" cy="72.9864" r="1.80958" transform="rotate(-90 197.069 72.9864)" fill="#1E1E1E"/>
<circle cx="197.069" cy="60.3193" r="1.80958" transform="rotate(-90 197.069 60.3193)" fill="#1E1E1E"/>
<circle cx="197.069" cy="47.6523" r="1.80958" transform="rotate(-90 197.069 47.6523)" fill="#1E1E1E"/>
<circle cx="197.069" cy="34.9852" r="1.80958" transform="rotate(-90 197.069 34.9852)" fill="#1E1E1E"/>
<circle cx="197.069" cy="22.3181" r="1.80958" transform="rotate(-90 197.069 22.3181)" fill="#1E1E1E"/>
<circle cx="197.069" cy="9.65105" r="1.80958" transform="rotate(-90 197.069 9.65105)" fill="#1E1E1E"/>
<circle cx="209.736" cy="110.988" r="1.80958" transform="rotate(-90 209.736 110.988)" fill="#1E1E1E"/>
<circle cx="209.736" cy="98.3206" r="1.80958" transform="rotate(-90 209.736 98.3206)" fill="#1E1E1E"/>
<circle cx="209.736" cy="85.6535" r="1.80958" transform="rotate(-90 209.736 85.6535)" fill="#1E1E1E"/>
<circle cx="209.736" cy="72.9864" r="1.80958" transform="rotate(-90 209.736 72.9864)" fill="#1E1E1E"/>
<circle cx="209.736" cy="60.3193" r="1.80958" transform="rotate(-90 209.736 60.3193)" fill="#1E1E1E"/>
<circle cx="209.736" cy="47.6523" r="1.80958" transform="rotate(-90 209.736 47.6523)" fill="#1E1E1E"/>
<circle cx="209.736" cy="34.9852" r="1.80958" transform="rotate(-90 209.736 34.9852)" fill="#1E1E1E"/>
<circle cx="209.736" cy="22.3181" r="1.80958" transform="rotate(-90 209.736 22.3181)" fill="#1E1E1E"/>
<circle cx="209.736" cy="9.65105" r="1.80958" transform="rotate(-90 209.736 9.65105)" fill="#1E1E1E"/>
<circle cx="222.403" cy="110.988" r="1.80958" transform="rotate(-90 222.403 110.988)" fill="#1E1E1E"/>
<circle cx="222.403" cy="98.3206" r="1.80958" transform="rotate(-90 222.403 98.3206)" fill="#1E1E1E"/>
<circle cx="222.403" cy="85.6535" r="1.80958" transform="rotate(-90 222.403 85.6535)" fill="#1E1E1E"/>
<circle cx="222.403" cy="72.9864" r="1.80958" transform="rotate(-90 222.403 72.9864)" fill="#1E1E1E"/>
<circle cx="222.403" cy="60.3194" r="1.80958" transform="rotate(-90 222.403 60.3194)" fill="#1E1E1E"/>
<circle cx="222.403" cy="47.6523" r="1.80958" transform="rotate(-90 222.403 47.6523)" fill="#1E1E1E"/>
<circle cx="222.403" cy="34.9852" r="1.80958" transform="rotate(-90 222.403 34.9852)" fill="#1E1E1E"/>
<circle cx="222.403" cy="22.3182" r="1.80958" transform="rotate(-90 222.403 22.3182)" fill="#1E1E1E"/>
<circle cx="222.403" cy="9.65105" r="1.80958" transform="rotate(-90 222.403 9.65105)" fill="#1E1E1E"/>
<circle cx="235.07" cy="110.988" r="1.80958" transform="rotate(-90 235.07 110.988)" fill="#1E1E1E"/>
<circle cx="235.07" cy="98.3206" r="1.80958" transform="rotate(-90 235.07 98.3206)" fill="#1E1E1E"/>
<circle cx="235.07" cy="85.6535" r="1.80958" transform="rotate(-90 235.07 85.6535)" fill="#1E1E1E"/>
<circle cx="235.07" cy="72.9864" r="1.80958" transform="rotate(-90 235.07 72.9864)" fill="#1E1E1E"/>
<circle cx="235.07" cy="60.3194" r="1.80958" transform="rotate(-90 235.07 60.3194)" fill="#1E1E1E"/>
<circle cx="235.07" cy="47.6523" r="1.80958" transform="rotate(-90 235.07 47.6523)" fill="#1E1E1E"/>
<circle cx="235.07" cy="34.9852" r="1.80958" transform="rotate(-90 235.07 34.9852)" fill="#1E1E1E"/>
<circle cx="235.07" cy="22.3182" r="1.80958" transform="rotate(-90 235.07 22.3182)" fill="#1E1E1E"/>
<circle cx="235.07" cy="9.65105" r="1.80958" transform="rotate(-90 235.07 9.65105)" fill="#1E1E1E"/>
<circle cx="247.737" cy="110.988" r="1.80958" transform="rotate(-90 247.737 110.988)" fill="#1E1E1E"/>
<circle cx="247.737" cy="98.3206" r="1.80958" transform="rotate(-90 247.737 98.3206)" fill="#1E1E1E"/>
<circle cx="247.737" cy="85.6535" r="1.80958" transform="rotate(-90 247.737 85.6535)" fill="#1E1E1E"/>
<circle cx="247.737" cy="72.9864" r="1.80958" transform="rotate(-90 247.737 72.9864)" fill="#1E1E1E"/>
<circle cx="247.737" cy="60.3194" r="1.80958" transform="rotate(-90 247.737 60.3194)" fill="#1E1E1E"/>
<circle cx="247.737" cy="47.6523" r="1.80958" transform="rotate(-90 247.737 47.6523)" fill="#1E1E1E"/>
<circle cx="247.737" cy="34.9852" r="1.80958" transform="rotate(-90 247.737 34.9852)" fill="#1E1E1E"/>
<circle cx="247.737" cy="22.3182" r="1.80958" transform="rotate(-90 247.737 22.3182)" fill="#1E1E1E"/>
<circle cx="247.737" cy="9.65111" r="1.80958" transform="rotate(-90 247.737 9.65111)" fill="#1E1E1E"/>
<circle cx="260.404" cy="110.988" r="1.80958" transform="rotate(-90 260.404 110.988)" fill="#1E1E1E"/>
<circle cx="260.404" cy="98.3206" r="1.80958" transform="rotate(-90 260.404 98.3206)" fill="#1E1E1E"/>
<circle cx="260.404" cy="85.6535" r="1.80958" transform="rotate(-90 260.404 85.6535)" fill="#1E1E1E"/>
<circle cx="260.404" cy="72.9864" r="1.80958" transform="rotate(-90 260.404 72.9864)" fill="#1E1E1E"/>
<circle cx="260.404" cy="60.3193" r="1.80958" transform="rotate(-90 260.404 60.3193)" fill="#1E1E1E"/>
<circle cx="260.404" cy="47.6523" r="1.80958" transform="rotate(-90 260.404 47.6523)" fill="#1E1E1E"/>
<circle cx="260.404" cy="34.9852" r="1.80958" transform="rotate(-90 260.404 34.9852)" fill="#1E1E1E"/>
<circle cx="260.404" cy="22.3182" r="1.80958" transform="rotate(-90 260.404 22.3182)" fill="#1E1E1E"/>
<circle cx="260.404" cy="9.65111" r="1.80958" transform="rotate(-90 260.404 9.65111)" fill="#1E1E1E"/>
<circle cx="273.071" cy="110.988" r="1.80958" transform="rotate(-90 273.071 110.988)" fill="#1E1E1E"/>
<circle cx="273.071" cy="98.3206" r="1.80958" transform="rotate(-90 273.071 98.3206)" fill="#1E1E1E"/>
<circle cx="273.071" cy="85.6535" r="1.80958" transform="rotate(-90 273.071 85.6535)" fill="#1E1E1E"/>
<circle cx="273.071" cy="72.9864" r="1.80958" transform="rotate(-90 273.071 72.9864)" fill="#1E1E1E"/>
<circle cx="273.071" cy="60.3193" r="1.80958" transform="rotate(-90 273.071 60.3193)" fill="#1E1E1E"/>
<circle cx="273.071" cy="47.6523" r="1.80958" transform="rotate(-90 273.071 47.6523)" fill="#1E1E1E"/>
<circle cx="273.071" cy="34.9852" r="1.80958" transform="rotate(-90 273.071 34.9852)" fill="#1E1E1E"/>
<circle cx="273.071" cy="22.3182" r="1.80958" transform="rotate(-90 273.071 22.3182)" fill="#1E1E1E"/>
<circle cx="273.071" cy="9.65111" r="1.80958" transform="rotate(-90 273.071 9.65111)" fill="#1E1E1E"/>
<rect width="120.639" height="120.639" transform="matrix(-1 4.37114e-08 4.37114e-08 1 40.6388 120.639)" fill="#FFA131"/>
<rect width="60.3194" height="120.639" transform="matrix(-1 4.37114e-08 4.37114e-08 1 40.6388 120.639)" fill="#1E1E1E"/>
<rect width="60.3194" height="120.639" transform="matrix(-1 4.37114e-08 4.37114e-08 1 40.6388 120.639)" fill="#1E1E1E"/>
<rect width="120.639" height="120.639" transform="matrix(-1 4.37114e-08 4.37114e-08 1 524 361.916)" fill="#FFA131"/>
<path d="M524 482.555L403.361 482.555L524 361.916L524 482.555Z" fill="#1E1E1E"/>
<rect width="120.639" height="120.639" transform="matrix(-1 4.37114e-08 4.37114e-08 1 403.361 241.278)" fill="#8EB5F0"/>
<rect width="30.1597" height="30.1597" transform="matrix(0.707107 0.707107 0.707107 -0.707107 321.93 301.597)" fill="#4388C8"/>
<rect width="120.639" height="120.639" transform="matrix(-4.37114e-08 -1 -1 4.37114e-08 282.722 482.555)" fill="#4388C8"/>
<rect x="524" y="361.916" width="120.639" height="120.639" transform="rotate(180 524 361.916)" fill="#1E1E1E"/>
<path fill-rule="evenodd" clip-rule="evenodd" d="M403.361 254.073L403.361 245.543L519.735 361.916L511.204 361.916L403.361 254.073ZM524 349.121L524 357.651L407.626 241.278L416.157 241.278L524 349.121ZM524 340.59L524 332.06L433.218 241.278L424.687 241.278L524 340.59ZM524 314.999L524 323.53L441.748 241.278L450.279 241.278L524 314.999ZM524 306.469L524 297.938L467.339 241.278L458.809 241.278L524 306.469ZM524 280.877L524 289.408L475.87 241.278L484.4 241.278L524 280.877ZM524 272.347L524 263.816L501.461 241.278L492.931 241.278L524 272.347ZM524 246.755L524 255.286L509.992 241.278L518.522 241.278L524 246.755ZM403.361 262.604L403.361 271.134L494.143 361.916L502.674 361.916L403.361 262.604ZM403.361 288.195L403.361 279.665L485.613 361.916L477.082 361.916L403.361 288.195ZM403.361 296.726L403.361 305.256L460.022 361.916L468.552 361.916L403.361 296.726ZM403.361 322.317L403.361 313.787L451.491 361.916L442.961 361.916L403.361 322.317ZM403.361 330.847L403.361 339.378L425.9 361.916L434.43 361.916L403.361 330.847ZM403.361 356.439L403.361 347.908L417.369 361.916L408.839 361.916L403.361 356.439Z" fill="#8EB5F0"/>
<rect width="120.639" height="120.639" transform="matrix(1 -4.37114e-08 -4.37114e-08 -1 41.4448 482.555)" fill="#8EB5F0"/>
<path d="M41.4448 482.555C57.2874 482.555 72.9747 479.435 87.6113 473.372C102.248 467.309 115.547 458.423 126.749 447.221C137.952 436.019 146.838 422.719 152.901 408.083C158.963 393.446 162.084 377.759 162.084 361.916L41.4448 361.916L41.4448 482.555Z" fill="white"/>
<rect width="120.639" height="120.639" transform="matrix(-1 4.37114e-08 4.37114e-08 1 40.6388 241.278)" fill="#8EB5F0"/>
<rect width="30.1597" height="30.1597" transform="matrix(0.707107 0.707107 0.707107 -0.707107 -40.7924 301.597)" fill="#4388C8"/>
<rect x="282.722" y="361.916" width="120.639" height="120.639" transform="rotate(180 282.722 361.916)" fill="#8EB5F0"/>
<path d="M282.722 361.916C266.88 361.916 251.193 358.796 236.556 352.733C221.919 346.671 208.62 337.784 197.418 326.582C186.216 315.38 177.329 302.081 171.267 287.444C165.204 272.807 162.084 257.12 162.084 241.278L282.722 241.278L282.722 361.916Z" fill="#4388C8"/>
<rect x="162.084" y="361.916" width="120.639" height="120.639" transform="rotate(180 162.084 361.916)" fill="#4388C8"/>
<circle r="30.1597" transform="matrix(4.37114e-08 1 1 -4.37114e-08 101.764 301.593)" fill="#FFA131"/>
<rect x="282.722" y="241.278" width="120.639" height="120.639" transform="rotate(180 282.722 241.278)" fill="#4388C8"/>
<circle r="30.1597" transform="matrix(4.37114e-08 1 1 -4.37114e-08 222.403 180.958)" fill="#1E1E1E"/>
</svg>
