<svg width="135" height="25" viewBox="0 0 135 25" fill="none" xmlns="http://www.w3.org/2000/svg">
<path d="M22.1004 15.7907C19.7916 20.3203 13.6748 24.5493 7.5794 24.9724C6.74289 25.0021 5.9056 24.943 5.08154 24.7963L7.7641 21.2546C13.3483 20.8251 18.8058 16.2868 19.4802 11.9977L22.1004 15.7907Z" fill="white"/>
<path d="M13.6512 1.09535C12.9101 0.81499 12.15 0.587473 11.3767 0.414512C8.85438 -0.138171 6.24227 -0.138171 3.71993 0.414512V0.386591L2.74699 0.661505C1.96149 0.881932 1.19394 1.16195 0.451031 1.49913L0 1.70317V19.9914L3.71564 15.0902V4.24398C6.377 3.49275 9.20068 3.54205 11.8342 4.38573L14.1753 1.29939C14.0013 1.22852 13.8252 1.15764 13.6512 1.09535Z" fill="white"/>
<path d="M16.8579 0.412231L0.00439453 22.6502V24.9999H2.8867L19.8218 2.65235L16.8579 0.412231Z" fill="white"/>
<path d="M27.588 17.1993L24.5318 19.3084L21.9995 15.6422L18.7006 10.8613L17.2336 8.74141L19.5962 5.625L27.588 17.1993Z" fill="white"/>
<path d="M46.4131 6.46759C46.4131 9.34774 44.4802 10.703 42.298 10.703H36.1404V2.23004H42.2916C44.4802 2.23004 46.4131 3.58528 46.4131 6.46759ZM44.2332 6.46759C44.2332 4.40788 43.1206 4.05779 41.4733 4.05779H38.3204V8.87523H41.4733C43.1142 8.87523 44.2267 8.52515 44.2267 6.46759H44.2332Z" fill="white"/>
<path d="M54.6262 8.90101H49.5532L48.6447 10.703H46.2478L50.6185 2.23004H53.5609L57.9424 10.703H55.5347L54.6262 8.90101ZM53.8144 7.27729L52.0962 3.84087L50.3651 7.27729H53.8144Z" fill="white"/>
<path d="M66.9608 4.05779H62.8456V10.703H60.6657V4.05779H56.5505V2.23004H66.9608V4.05779Z" fill="white"/>
<path d="M73.9219 8.90101H68.8489L67.9404 10.703H65.5435L69.9142 2.23004H72.8566L77.238 10.703H74.8282L73.9219 8.90101ZM73.11 7.27729L71.3918 3.84087L69.6607 7.27729H73.11Z" fill="white"/>
<path d="M81.5701 8.87491H88.0134V10.7027H78.5203V9.60086C78.5203 6.07852 85.9537 6.86675 85.9537 4.9402C85.9537 4.23788 85.5048 3.9372 83.6298 3.9372C81.7548 3.9372 80.8935 4.21426 80.8935 5.55876H78.7136C78.7136 2.73874 80.7002 2.1073 83.5074 2.1073C86.4262 2.1073 88.1315 2.66572 88.1315 4.77268C88.1315 8.05876 82.1027 7.19966 81.5701 8.87491Z" fill="white"/>
<path d="M100.043 8.2352C100.043 9.66346 99.2075 10.703 97.2831 10.703H89.5361V2.23004H96.9932C98.9262 2.23004 99.5104 3.20942 99.5104 4.45728C99.4998 5.06984 99.2626 5.65677 98.8446 6.10461C99.2176 6.31903 99.5258 6.63014 99.7367 7.00513C99.9477 7.38012 100.053 7.80508 100.043 8.2352ZM91.714 5.55908H96.2243C96.8063 5.55908 97.339 5.55908 97.339 4.6742C97.339 3.78932 96.8063 3.80435 96.2114 3.80435H91.714V5.55908ZM97.8652 8.1364C97.8652 7.24078 97.3325 7.24078 96.7505 7.24078H91.714V9.03202H96.7505C97.3325 9.02128 97.8652 9.02128 97.8652 8.12566V8.1364Z" fill="white"/>
<path d="M100.949 6.45438C100.949 3.6451 102.55 2.1073 106.278 2.1073C110.007 2.1073 111.605 3.65799 111.605 6.45438C111.605 9.25077 109.994 10.8251 106.278 10.8251C102.562 10.8251 100.949 9.2744 100.949 6.45438ZM109.425 6.45438C109.425 4.73617 108.553 3.9372 106.278 3.9372C104.004 3.9372 103.129 4.72328 103.129 6.45438C103.129 8.18548 104.014 8.99734 106.278 8.99734C108.542 8.99734 109.425 8.18548 109.425 6.45438Z" fill="white"/>
<path d="M122.62 4.05779H118.503V10.703H116.323V4.05779H112.208V2.23004H122.62V4.05779Z" fill="white"/>
<path d="M125.548 7.786C125.548 8.68161 126.274 9.09399 129.033 9.09399C131.323 9.09399 132.012 8.8384 132.012 8.17259C132.012 7.47027 131.527 7.35 128.791 7.21684C125.099 7.04716 123.636 6.46727 123.636 4.56649C123.636 2.70223 125.537 2.1073 128.709 2.1073C131.881 2.1073 133.827 2.90412 133.827 5.00249H131.649C131.649 4.07036 130.717 3.8384 128.454 3.8384C126.306 3.8384 125.801 4.05318 125.801 4.67388C125.801 5.29459 126.31 5.44922 128.78 5.59527C132.122 5.77569 134.192 5.95825 134.192 8.10172C134.192 10.3655 132.045 10.8251 128.913 10.8251C125.438 10.8251 123.368 10.2323 123.368 7.786H125.548Z" fill="white"/>
<path d="M44.3966 21.0773H39.3257L38.4172 22.8815H36.0203L40.3996 14.4064H43.3399L47.7149 22.8772H45.3051L44.3966 21.0773ZM43.5868 19.4536L41.8686 16.0172L40.1375 19.4536H43.5868Z" fill="white"/>
<path d="M54.3107 14.2864C57.6891 14.2864 59.3837 15.5751 59.6007 18.015H57.3863C57.1715 16.6468 56.1277 16.1142 54.3107 16.1142C52.0964 16.1142 51.1642 16.9003 51.1642 18.6314C51.1642 20.3625 52.1071 21.1743 54.3107 21.1743C56.1148 21.1743 57.1801 20.6288 57.3863 19.2413H59.6007C59.3859 21.6984 57.6891 22.9935 54.3107 22.9935C50.5822 22.9935 48.9843 21.4428 48.9843 18.6228C48.9843 15.8028 50.5822 14.2864 54.3107 14.2864Z" fill="white"/>
<path d="M69.3817 21.0775H64.3086L63.4023 22.8773H61.0054L65.3739 14.4022H68.3207L72.6978 22.8773H70.2902L69.3817 21.0775ZM68.5698 19.4538L66.8516 16.0173L65.1205 19.4538H68.5698Z" fill="white"/>
<path d="M83.9692 18.6439C83.9692 21.5241 82.0362 22.8815 79.8519 22.8815H73.7029V14.4064H79.8519C82.0427 14.4064 83.9692 15.7616 83.9692 18.6439ZM81.7892 18.6439C81.7892 16.5864 80.6767 16.2341 79.0293 16.2341H75.8807V21.0516H79.0293C80.6767 21.0516 81.7892 20.7015 81.7892 18.6439Z" fill="white"/>
<path d="M87.4185 16.1375V17.8557H94.1969V19.4407H87.4185V21.159H94.1969V22.8772H85.2385V14.4064H94.1969V16.1375H87.4185Z" fill="white"/>
<path d="M108.735 22.8772H106.551V17.0782L103.033 22.8772H101.458L97.9361 17.0782V22.8772H95.7583V14.4064H98.6986L102.255 20.3858L105.801 14.4064H108.744L108.735 22.8772Z" fill="white"/>
<path d="M109.728 14.4064H112.35L115.606 18.2724L118.862 14.4064H121.489L116.695 20.0958V22.8879H114.521V20.0958L109.728 14.4064Z" fill="white"/>
</svg>
