<svg width="110" height="21" viewBox="0 0 110 21" fill="none" xmlns="http://www.w3.org/2000/svg">
<path d="M18.06 12.9008C16.17 16.6008 11.17 20.0608 6.19 20.4008C5.52032 20.4218 4.85022 20.3749 4.19 20.2608L6.38 17.3608C10.94 17.0208 15.38 13.3008 15.95 9.80078L18.06 12.9008Z" fill="white"/>
<path d="M11.15 0.889933C10.5452 0.658702 9.92331 0.474815 9.29 0.339933C7.22794 -0.113311 5.09206 -0.113311 3.03 0.339933L2.24 0.569934C1.60073 0.750118 0.975689 0.977406 0.37 1.24993L0 1.41993V16.3399L3 12.3399V3.50993C4.01881 3.2244 5.07193 3.07972 6.13 3.07993C7.31828 3.07876 8.49935 3.26436 9.63 3.62993L11.55 1.10993L11.15 0.889933Z" fill="white"/>
<path d="M13.77 0.330078L0 18.5101V20.4301H2.35L16.19 2.16008L13.77 0.330078Z" fill="white"/>
<path d="M22.54 14.0498L20.04 15.7798L17.97 12.7798L15.28 8.86984L14.08 7.13984L16.01 4.58984L22.54 14.0498Z" fill="white"/>
<path d="M37.92 5.28161C37.9579 5.73788 37.8975 6.19696 37.7428 6.62788C37.5881 7.05879 37.3428 7.45149 37.0233 7.77947C36.7039 8.10744 36.3178 8.36306 35.8911 8.52904C35.4644 8.69502 35.0071 8.76751 34.55 8.74161H29.49V1.82161H34.49C34.9519 1.78668 35.416 1.85246 35.85 2.01441C36.284 2.17636 36.6777 2.43063 37.0039 2.75963C37.3301 3.08864 37.5809 3.48454 37.739 3.91997C37.8972 4.3554 37.959 4.81999 37.92 5.28161ZM36.14 5.28161C36.14 3.60161 35.23 3.28161 33.88 3.28161H31.31V7.22161H33.88C35.23 7.25161 36.14 6.96161 36.14 5.28161Z" fill="white"/>
<path d="M44.63 7.27031H40.49L39.75 8.74031H37.75L41.32 1.82031H43.72L47.3 8.74031H45.3L44.63 7.27031ZM43.97 5.94031L42.57 3.14031L41.15 5.94031H43.97Z" fill="white"/>
<path d="M54.72 3.31031H51.35V8.74031H49.57V3.31031H46.21V1.82031H54.72V3.31031Z" fill="white"/>
<path d="M60.4 7.27031H56.26L55.49 8.74031H53.49L57.06 1.82031H59.49L63.07 8.74031H61.07L60.4 7.27031ZM59.74 5.94031L58.34 3.14031L56.92 5.94031H59.74Z" fill="white"/>
<path d="M66.66 7.2507H71.92V8.7407H64.17V7.8407C64.17 4.9607 70.24 5.6107 70.24 4.0407C70.24 3.4607 69.87 3.2107 68.34 3.2107C66.81 3.2107 66.11 3.4407 66.11 4.5407H64.33C64.33 2.2407 65.95 1.7207 68.24 1.7207C70.53 1.7207 72.02 2.1807 72.02 3.9007C72.02 6.5807 67.09 5.8707 66.66 7.2507Z" fill="white"/>
<path d="M81.75 6.73031C81.75 7.89031 81.07 8.73031 79.5 8.73031H73.17V1.82031H79.26C80.83 1.82031 81.32 2.62031 81.32 3.64031C81.313 4.14348 81.1166 4.62553 80.77 4.99031C81.0765 5.1634 81.3298 5.41702 81.5025 5.72371C81.6753 6.0304 81.7608 6.37849 81.75 6.73031ZM74.95 4.51031H78.63C79.1 4.51031 79.54 4.51031 79.54 3.79031C79.54 3.07031 79.1 3.08031 78.62 3.08031H74.95V4.51031ZM79.95 6.61031C79.95 5.87031 79.52 5.87031 79.04 5.87031H74.95V7.34031H79.06C79.54 7.37031 79.97 7.37031 79.97 6.64031L79.95 6.61031Z" fill="white"/>
<path d="M82.49 5.2707C82.49 2.9807 83.79 1.7207 86.84 1.7207C89.89 1.7207 91.19 2.9907 91.19 5.2707C91.19 7.5507 89.88 8.8407 86.84 8.8407C83.8 8.8407 82.49 7.5807 82.49 5.2707ZM89.41 5.2707C89.41 3.8707 88.7 3.2107 86.84 3.2107C84.98 3.2107 84.27 3.8607 84.27 5.2707C84.27 6.6807 84.99 7.3507 86.84 7.3507C88.69 7.3507 89.42 6.6907 89.42 5.2707H89.41Z" fill="white"/>
<path d="M100.2 3.31031H96.84V8.74031H95.06V3.31031H91.7V1.82031H100.2V3.31031Z" fill="white"/>
<path d="M102.6 6.36047C102.6 7.09047 103.19 7.43047 105.45 7.43047C107.32 7.43047 107.88 7.22047 107.88 6.68047C107.88 6.14047 107.48 6.00047 105.24 5.89047C102.24 5.76047 101.03 5.28047 101.03 3.73047C101.03 2.18047 102.58 1.73047 105.17 1.73047C107.76 1.73047 109.36 2.38047 109.36 4.10047H107.58C107.58 3.33047 106.82 3.15047 104.97 3.15047C103.12 3.15047 102.81 3.31047 102.81 3.83047C102.81 4.35047 103.22 4.46047 105.24 4.58047C107.97 4.73047 109.66 4.88047 109.66 6.63047C109.66 8.38047 107.91 8.85047 105.35 8.85047C102.51 8.85047 100.82 8.37047 100.82 6.37047L102.6 6.36047Z" fill="white"/>
<path d="M36.27 17.2195H32.13L31.39 18.6995H29.39L32.96 11.7695H35.36L38.94 18.6995H36.94L36.27 17.2195ZM35.61 15.8995L34.21 13.0895L32.79 15.8995H35.61Z" fill="white"/>
<path d="M44.38 11.6797C47.14 11.6797 48.52 12.6797 48.7 14.6797H46.89C46.72 13.5597 45.89 13.1297 44.38 13.1297C42.57 13.1297 41.81 13.7697 41.81 15.1797C41.81 16.5897 42.58 17.2597 44.38 17.2597C45.85 17.2597 46.72 16.8197 46.89 15.6897H48.7C48.52 17.6897 47.14 18.7497 44.38 18.7497C41.38 18.7497 40.03 17.4897 40.03 15.1797C40.03 12.8697 41.33 11.6797 44.38 11.6797Z" fill="white"/>
<path d="M56.69 17.2195H52.55L51.81 18.6995H49.81L53.38 11.7695H55.78L59.36 18.6995H57.49L56.69 17.2195ZM56.03 15.8995L54.63 13.0895L53.21 15.8995H56.03Z" fill="white"/>
<path d="M68.61 15.2289C68.6493 15.685 68.5902 16.1443 68.4368 16.5757C68.2834 17.0071 68.0392 17.4006 67.7207 17.7295C67.4022 18.0584 67.0168 18.3152 66.5906 18.4824C66.1644 18.6496 65.7072 18.7234 65.25 18.6989H60.25V11.7689H65.25C65.7067 11.7428 66.1637 11.8152 66.5899 11.9813C67.0162 12.1473 67.4017 12.4031 67.7204 12.7313C68.0391 13.0595 68.2835 13.4524 68.437 13.8833C68.5904 14.3142 68.6495 14.7731 68.61 15.2289ZM66.83 15.2289C66.83 13.5489 65.92 13.2289 64.58 13.2289H62.01V17.1589H64.58C65.92 17.1989 66.83 16.9189 66.83 15.2289Z" fill="white"/>
<path d="M71.49 13.1895V14.5895H77.03V15.8795H71.49V17.2795H77.03V18.6995H69.66V11.7695H76.98V13.1895H71.49Z" fill="white"/>
<path d="M88.85 18.6995H87.07V13.9495L84.2 18.6995H82.91L80.03 13.9495V18.6995H78.25V11.7695H80.66L83.55 16.6595L86.45 11.7695H88.85V18.6995Z" fill="white"/>
<path d="M89.67 11.7695H91.82L94.49 14.9295L97.15 11.7695H99.29L95.38 16.4195V18.6995H93.59V16.4195L89.67 11.7695Z" fill="white"/>
</svg>
