<svg width="89" height="24" viewBox="0 0 89 24" fill="none" xmlns="http://www.w3.org/2000/svg">
<path d="M60.6042 4.67178L58.1444 18.5979H54.7521L56.2399 10.2462L51.6376 18.5979H48.9L47.2336 10.2065L45.7656 18.5979H42.3734L44.8332 4.67178H48.8405L51.0623 14.3129L56.6169 4.67178H60.6042Z" fill="white"/>
<path d="M61.2583 11.615C61.4963 10.2396 62.0055 9.01624 62.7858 7.945C63.5793 6.86054 64.5645 6.02074 65.7416 5.42561C66.9186 4.81726 68.1948 4.51308 69.5703 4.51308C71.2366 4.51308 72.5724 4.91644 73.5775 5.72318C74.5958 6.52991 75.1513 7.64744 75.2439 9.07575H71.5144C71.3424 8.61287 71.0383 8.26241 70.6018 8.02435C70.1786 7.77307 69.6562 7.64744 69.0346 7.64744C67.937 7.64744 66.9914 8.01113 66.1978 8.73851C65.4176 9.45267 64.9216 10.4115 64.71 11.615C64.6439 12.0117 64.6108 12.3556 64.6108 12.6465C64.6108 13.6252 64.8952 14.379 65.4639 14.908C66.0325 15.437 66.8393 15.7015 67.8841 15.7015C68.7305 15.7015 69.4777 15.4899 70.1257 15.0667C70.7738 14.6303 71.2961 14.0153 71.6929 13.2218H67.4079L67.8245 10.7421H75.2042L74.6487 13.8963C74.252 14.7427 73.6833 15.5296 72.9427 16.257C72.2153 16.9844 71.349 17.5729 70.3439 18.0226C69.3388 18.4722 68.2544 18.697 67.0905 18.697C65.8871 18.697 64.829 18.4656 63.9165 18.0027C63.0172 17.5266 62.3229 16.8654 61.8335 16.019C61.3574 15.1725 61.1194 14.1873 61.1194 13.0631C61.1194 12.6796 61.1657 12.1969 61.2583 11.615Z" fill="white"/>
<path d="M88.1725 4.67178L87.7162 7.34987H84.0065L82.0228 18.5979H78.6305L80.6143 7.34987H76.9245L77.4006 4.67178H88.1725Z" fill="white"/>
<path d="M1.51365 20.1139L12.227 20.4642H35.9247L46.1493 19.9447V17.7111L44.8385 15.8176L41.2737 14.5581L36.7502 15.8176L34.9558 17.5112L14.6639 17.7111L10.6889 14.8145L7.58207 13.6934L3.02776 14.8709L1.91696 16.9079L1.26073 18.9586L1.51365 20.1139Z" fill="#263238"/>
<path opacity="0.6" d="M1.51365 20.1139L12.227 20.4642H35.9247L46.1493 19.9447V17.7111L44.8385 15.8176L41.2737 14.5581L36.7502 15.8176L34.9558 17.5112L14.6639 17.7111L10.6889 14.8145L7.58207 13.6934L3.02776 14.8709L1.91696 16.9079L1.26073 18.9586L1.51365 20.1139Z" fill="black"/>
<path d="M2.13741 18.4203C2.52363 17.4855 4.03774 15.9304 4.96911 15.5408C5.87485 15.1614 8.02469 15.0896 8.89966 15.5408C9.82249 16.0176 10.9897 17.9333 11.3058 18.9262C11.422 19.2919 11.3879 20.1703 11.3503 20.7496L36.6425 21.0162C36.5895 20.3138 36.5536 19.3449 36.7194 18.9398C37.1022 18.0068 38.6197 16.4516 39.5511 16.062C40.4568 15.6809 42.6067 15.6108 43.4817 16.062C44.4045 16.5371 45.5734 18.4545 45.8895 19.4474C45.9658 19.8257 45.9911 20.2125 45.9647 20.5975C46.1588 20.4548 46.3315 20.285 46.4774 20.0934L46.715 19.7721C47.0325 19.3447 47.2038 18.8263 47.2037 18.2939V17.4685C47.2036 17.0135 47.0789 16.5673 46.8431 16.1782L46.2347 15.1785V8.38376C46.235 8.04957 46.1676 7.71879 46.0365 7.41137L43.6064 1.69841C43.4214 1.26332 43.1159 0.890146 42.726 0.622813C42.336 0.355479 41.8778 0.205117 41.4053 0.18942C38.7958 0.100555 33.6758 -0.0532486 31.596 0.0185266C28.5712 0.121063 20.4606 0.948182 18.0425 1.1994C17.596 1.24604 17.1765 1.43542 16.8462 1.73942L9.66868 8.33591L2.52363 11.4445C2.22542 11.5756 1.96197 11.7747 1.75428 12.0257C1.54659 12.2767 1.40041 12.5727 1.32738 12.8902L0.654055 15.7954L0.430185 16.0876C0.0989056 16.5218 -0.0500647 17.068 0.0149136 17.6103L0.153337 18.7416C0.218974 19.2778 0.489682 19.7678 0.908687 20.1088L0.997551 20.1805C1.30508 20.4316 1.6781 20.5894 2.07247 20.6351C2.01095 19.931 1.95968 18.851 2.13741 18.4203Z" fill="white"/>
<path d="M6.60456 24C8.75175 24 10.4924 22.2594 10.4924 20.1122C10.4924 17.965 8.75175 16.2243 6.60456 16.2243C4.45737 16.2243 2.71674 17.965 2.71674 20.1122C2.71674 22.2594 4.45737 24 6.60456 24Z" fill="#263238"/>
<path opacity="0.5" d="M6.60456 22.8208C8.10052 22.8208 9.31323 21.6081 9.31323 20.1122C9.31323 18.6162 8.10052 17.4035 6.60456 17.4035C5.10861 17.4035 3.8959 18.6162 3.8959 20.1122C3.8959 21.6081 5.10861 22.8208 6.60456 22.8208Z" fill="white"/>
<g opacity="0.5">
<path d="M5.59971 19.2218L5.41173 18.6579C5.39196 18.5976 5.35677 18.5435 5.30965 18.501C5.26254 18.4585 5.20514 18.4291 5.14313 18.4156C5.08113 18.4021 5.01668 18.4051 4.95618 18.4242C4.89568 18.4433 4.84123 18.4779 4.79822 18.5246C4.58692 18.7637 4.42541 19.0426 4.32314 19.3449C4.30399 19.4056 4.30103 19.4703 4.31456 19.5325C4.3281 19.5948 4.35765 19.6524 4.40029 19.6997C4.44293 19.747 4.49719 19.7823 4.5577 19.8022C4.6182 19.8221 4.68285 19.8259 4.74524 19.8131L5.32628 19.6952C5.377 19.685 5.42498 19.6642 5.46701 19.634C5.50904 19.6039 5.54416 19.5651 5.57004 19.5203C5.59591 19.4755 5.61194 19.4258 5.61705 19.3743C5.62217 19.3228 5.61626 19.2708 5.59971 19.2218Z" fill="black"/>
<path d="M6.87799 18.8031L7.27105 18.3571C7.31349 18.3101 7.34289 18.2528 7.35629 18.1909C7.3697 18.1291 7.36666 18.0648 7.34747 18.0044C7.32828 17.9441 7.29361 17.8898 7.24692 17.8471C7.20023 17.8043 7.14314 17.7745 7.08136 17.7607C6.76693 17.6946 6.4422 17.6946 6.12777 17.7607C6.06626 17.775 6.00956 17.8051 5.96328 17.848C5.917 17.891 5.88275 17.9453 5.86392 18.0056C5.8451 18.0658 5.84235 18.13 5.85596 18.1916C5.86957 18.2533 5.89905 18.3103 5.9415 18.3571L6.33626 18.8031C6.37025 18.8414 6.41197 18.872 6.45865 18.893C6.50534 18.914 6.55594 18.9248 6.60713 18.9248C6.65831 18.9248 6.70891 18.914 6.7556 18.893C6.80229 18.872 6.844 18.8414 6.87799 18.8031Z" fill="black"/>
<path d="M7.8743 19.6901L8.45705 19.808C8.51941 19.8209 8.58408 19.8173 8.6446 19.7974C8.70512 19.7776 8.75936 19.7422 8.80191 19.6948C8.84446 19.6474 8.87383 19.5896 8.88709 19.5273C8.90034 19.465 8.89702 19.4003 8.87745 19.3397C8.77589 19.0375 8.61495 18.7586 8.40407 18.5194C8.36107 18.4728 8.30661 18.4382 8.24611 18.4191C8.18561 18.4 8.12116 18.397 8.05916 18.4105C7.99716 18.4239 7.93975 18.4534 7.89264 18.4959C7.84552 18.5384 7.81034 18.5925 7.79057 18.6527L7.60087 19.2167C7.58461 19.2657 7.57891 19.3176 7.58416 19.369C7.5894 19.4204 7.60547 19.4701 7.6313 19.5148C7.65713 19.5595 7.69214 19.5982 7.73403 19.6284C7.77591 19.6587 7.82372 19.6797 7.8743 19.6901Z" fill="black"/>
<path d="M7.60087 21.0042L7.79057 21.5682C7.81034 21.6285 7.84552 21.6826 7.89264 21.7251C7.93975 21.7675 7.99716 21.797 8.05916 21.8105C8.12116 21.8239 8.18561 21.821 8.24611 21.8019C8.30661 21.7827 8.36107 21.7481 8.40407 21.7015C8.61495 21.4623 8.77589 21.1834 8.87745 20.8812C8.89702 20.8206 8.90034 20.7559 8.88709 20.6936C8.87383 20.6313 8.84446 20.5736 8.80191 20.5262C8.75936 20.4788 8.70512 20.4434 8.6446 20.4235C8.58408 20.4036 8.51941 20.4 8.45705 20.413L7.8743 20.5309C7.82372 20.5413 7.77591 20.5623 7.73403 20.5925C7.69214 20.6227 7.65713 20.6614 7.6313 20.7062C7.60547 20.7509 7.5894 20.8006 7.58416 20.8519C7.57891 20.9033 7.58461 20.9552 7.60087 21.0042Z" fill="black"/>
<path d="M6.33113 21.4229L5.94149 21.869C5.89905 21.9161 5.8697 21.9735 5.85639 22.0355C5.84308 22.0975 5.84627 22.1619 5.86564 22.2222C5.88502 22.2826 5.9199 22.3368 5.9668 22.3795C6.01369 22.4222 6.07097 22.4518 6.1329 22.4654C6.44733 22.5314 6.77205 22.5314 7.08648 22.4654C7.14827 22.4516 7.20535 22.4218 7.25204 22.379C7.29874 22.3362 7.3334 22.282 7.35259 22.2216C7.37179 22.1613 7.37483 22.097 7.36142 22.0351C7.34801 21.9732 7.31862 21.9159 7.27617 21.869L6.88312 21.4229C6.84911 21.3829 6.80681 21.3508 6.75915 21.3288C6.7115 21.3068 6.65962 21.2953 6.60712 21.2953C6.55462 21.2953 6.50275 21.3068 6.4551 21.3288C6.40744 21.3508 6.36514 21.3829 6.33113 21.4229Z" fill="black"/>
<path d="M5.33312 20.5309L4.75208 20.413C4.68912 20.3997 4.62379 20.4034 4.56268 20.4235C4.50157 20.4436 4.44684 20.4795 4.40403 20.5275C4.36121 20.5755 4.33182 20.634 4.31882 20.697C4.30581 20.76 4.30966 20.8253 4.32997 20.8863C4.43225 21.1886 4.59376 21.4675 4.80506 21.7066C4.84806 21.7533 4.90252 21.7879 4.96302 21.807C5.02352 21.8261 5.08797 21.8291 5.14997 21.8156C5.21197 21.8021 5.26938 21.7727 5.31649 21.7302C5.3636 21.6877 5.39879 21.6336 5.41856 21.5733L5.60655 21.0094C5.62397 20.9601 5.63056 20.9076 5.62587 20.8555C5.62118 20.8034 5.60532 20.7529 5.57938 20.7075C5.55343 20.6621 5.518 20.6228 5.47551 20.5923C5.43301 20.5619 5.38445 20.5409 5.33312 20.5309Z" fill="black"/>
</g>
<g opacity="0.5">
<path d="M6.25252 19.9447C6.35351 19.9447 6.43538 19.8628 6.43538 19.7618C6.43538 19.6609 6.35351 19.579 6.25252 19.579C6.15153 19.579 6.06967 19.6609 6.06967 19.7618C6.06967 19.8628 6.15153 19.9447 6.25252 19.9447Z" fill="white"/>
<path d="M7.13775 19.7619C7.13775 19.798 7.12702 19.8334 7.10693 19.8634C7.08684 19.8935 7.05828 19.9169 7.02487 19.9308C6.99146 19.9446 6.95469 19.9482 6.91922 19.9412C6.88375 19.9341 6.85117 19.9167 6.82559 19.8911C6.80002 19.8656 6.78261 19.833 6.77555 19.7975C6.7685 19.7621 6.77212 19.7253 6.78596 19.6919C6.7998 19.6585 6.82323 19.6299 6.8533 19.6098C6.88337 19.5897 6.91873 19.579 6.95489 19.579C7.00339 19.579 7.0499 19.5983 7.08419 19.6326C7.11848 19.6668 7.13775 19.7134 7.13775 19.7619Z" fill="white"/>
<path d="M6.43538 20.4642C6.43538 20.5004 6.42465 20.5357 6.40456 20.5658C6.38447 20.5959 6.35591 20.6193 6.3225 20.6332C6.28908 20.647 6.25232 20.6506 6.21685 20.6436C6.18138 20.6365 6.1488 20.6191 6.12322 20.5935C6.09765 20.5679 6.08024 20.5354 6.07318 20.4999C6.06612 20.4644 6.06975 20.4277 6.08359 20.3942C6.09743 20.3608 6.12086 20.3323 6.15093 20.3122C6.181 20.2921 6.21636 20.2814 6.25252 20.2814C6.30102 20.2814 6.34753 20.3006 6.38182 20.3349C6.41611 20.3692 6.43538 20.4157 6.43538 20.4642Z" fill="white"/>
<path d="M7.13775 20.4642C7.13775 20.5004 7.12702 20.5357 7.10693 20.5658C7.08684 20.5959 7.05828 20.6193 7.02487 20.6332C6.99146 20.647 6.95469 20.6506 6.91922 20.6436C6.88375 20.6365 6.85117 20.6191 6.82559 20.5935C6.80002 20.5679 6.78261 20.5354 6.77555 20.4999C6.7685 20.4644 6.77212 20.4277 6.78596 20.3942C6.7998 20.3608 6.82323 20.3323 6.8533 20.3122C6.88337 20.2921 6.91873 20.2814 6.95489 20.2814C7.00339 20.2814 7.0499 20.3006 7.08419 20.3349C7.11848 20.3692 7.13775 20.4157 7.13775 20.4642Z" fill="white"/>
</g>
<path d="M41.4429 24C43.5901 24 45.3307 22.2594 45.3307 20.1122C45.3307 17.965 43.5901 16.2243 41.4429 16.2243C39.2957 16.2243 37.5551 17.965 37.5551 20.1122C37.5551 22.2594 39.2957 24 41.4429 24Z" fill="#263238"/>
<path opacity="0.5" d="M41.4429 22.8208C42.9388 22.8208 44.1516 21.6081 44.1516 20.1122C44.1516 18.6162 42.9388 17.4035 41.4429 17.4035C39.9469 17.4035 38.7342 18.6162 38.7342 20.1122C38.7342 21.6081 39.9469 22.8208 41.4429 22.8208Z" fill="white"/>
<g opacity="0.5">
<path d="M40.4449 19.2218L40.2569 18.6579C40.2371 18.5976 40.2019 18.5435 40.1548 18.501C40.1077 18.4585 40.0503 18.4291 39.9883 18.4156C39.9263 18.4021 39.8618 18.4051 39.8013 18.4242C39.7408 18.4433 39.6864 18.4779 39.6434 18.5246C39.4321 18.7637 39.2706 19.0426 39.1683 19.3449C39.1491 19.4056 39.1462 19.4703 39.1597 19.5325C39.1733 19.5948 39.2028 19.6524 39.2455 19.6997C39.2881 19.747 39.3424 19.7823 39.4029 19.8022C39.4634 19.8221 39.528 19.8259 39.5904 19.8131L40.1714 19.6952C40.2222 19.685 40.2701 19.6642 40.3122 19.634C40.3542 19.6039 40.3893 19.5651 40.4152 19.5203C40.4411 19.4755 40.4571 19.4258 40.4622 19.3743C40.4673 19.3228 40.4614 19.2708 40.4449 19.2218Z" fill="black"/>
<path d="M41.7163 18.8031L42.1094 18.3571C42.1518 18.3101 42.1812 18.2528 42.1946 18.1909C42.208 18.1291 42.205 18.0648 42.1858 18.0044C42.1666 17.9441 42.1319 17.8898 42.0853 17.8471C42.0386 17.8043 41.9815 17.7745 41.9197 17.7607C41.6053 17.6946 41.2805 17.6946 40.9661 17.7607C40.9042 17.7743 40.8469 17.8039 40.8 17.8466C40.7531 17.8892 40.7182 17.9435 40.6988 18.0038C40.6795 18.0642 40.6763 18.1286 40.6896 18.1906C40.7029 18.2526 40.7323 18.31 40.7747 18.3571L41.1695 18.8031C41.2035 18.8422 41.2455 18.8736 41.2927 18.8951C41.3398 18.9166 41.3911 18.9277 41.4429 18.9277C41.4947 18.9277 41.546 18.9166 41.5931 18.8951C41.6403 18.8736 41.6823 18.8422 41.7163 18.8031Z" fill="black"/>
<path d="M42.7126 19.6901L43.2954 19.808C43.3563 19.8189 43.419 19.814 43.4775 19.7939C43.5361 19.7738 43.5885 19.7391 43.6299 19.6931C43.6713 19.6471 43.7003 19.5913 43.7141 19.5309C43.728 19.4706 43.7262 19.4077 43.7089 19.3483C43.6074 19.046 43.4464 18.7671 43.2356 18.528C43.1926 18.4813 43.1381 18.4467 43.0776 18.4276C43.0171 18.4085 42.9526 18.4055 42.8906 18.419C42.8286 18.4325 42.7712 18.4619 42.7241 18.5044C42.677 18.5469 42.6418 18.601 42.6221 18.6613L42.4324 19.2252C42.4176 19.2742 42.4132 19.3257 42.4195 19.3765C42.4259 19.4272 42.4428 19.4761 42.4692 19.5199C42.4956 19.5637 42.531 19.6015 42.5729 19.6308C42.6148 19.6601 42.6624 19.6803 42.7126 19.6901Z" fill="black"/>
<path d="M42.4392 21.0042L42.6289 21.5682C42.6487 21.6285 42.6838 21.6825 42.731 21.725C42.7781 21.7675 42.8355 21.797 42.8975 21.8105C42.9595 21.8239 43.0239 21.821 43.0844 21.8018C43.1449 21.7827 43.1994 21.7481 43.2424 21.7015C43.4502 21.4632 43.6088 21.1862 43.7089 20.8863C43.7285 20.8257 43.7318 20.761 43.7186 20.6987C43.7053 20.6364 43.6759 20.5787 43.6334 20.5313C43.5908 20.4839 43.5366 20.4485 43.4761 20.4286C43.4156 20.4088 43.3509 20.4051 43.2885 20.4181L42.7058 20.536C42.6564 20.5473 42.6099 20.5687 42.5693 20.5989C42.5286 20.6292 42.4947 20.6675 42.4696 20.7115C42.4445 20.7555 42.4289 20.8043 42.4237 20.8547C42.4184 20.9051 42.4237 20.956 42.4392 21.0042Z" fill="black"/>
<path d="M41.1695 21.4229L40.7747 21.869C40.7323 21.916 40.7029 21.9735 40.6896 22.0355C40.6763 22.0974 40.6795 22.1618 40.6988 22.2222C40.7182 22.2826 40.7531 22.3368 40.8 22.3795C40.8469 22.4222 40.9042 22.4518 40.9661 22.4654C41.2805 22.5314 41.6053 22.5314 41.9197 22.4654C41.9815 22.4515 42.0386 22.4218 42.0853 22.379C42.1319 22.3362 42.1666 22.282 42.1858 22.2216C42.205 22.1613 42.208 22.097 42.1946 22.0351C42.1812 21.9732 42.1518 21.9159 42.1094 21.869L41.7163 21.4229C41.6823 21.3838 41.6403 21.3524 41.5931 21.3309C41.546 21.3094 41.4947 21.2983 41.4429 21.2983C41.3911 21.2983 41.3398 21.3094 41.2927 21.3309C41.2455 21.3524 41.2035 21.3838 41.1695 21.4229Z" fill="black"/>
<path d="M40.1714 20.5309L39.5904 20.4129C39.528 20.4002 39.4634 20.4039 39.4029 20.4238C39.3424 20.4437 39.2881 20.4791 39.2455 20.5264C39.2028 20.5737 39.1733 20.6313 39.1597 20.6935C39.1462 20.7558 39.1491 20.8204 39.1683 20.8812C39.2706 21.1835 39.4321 21.4623 39.6434 21.7015C39.6864 21.7481 39.7408 21.7827 39.8013 21.8018C39.8618 21.821 39.9263 21.8239 39.9883 21.8105C40.0503 21.797 40.1077 21.7675 40.1548 21.725C40.2019 21.6825 40.2371 21.6285 40.2569 21.5682L40.4449 21.0042C40.4614 20.9552 40.4673 20.9033 40.4622 20.8518C40.4571 20.8003 40.4411 20.7505 40.4152 20.7057C40.3893 20.6609 40.3542 20.6222 40.3122 20.592C40.2701 20.5619 40.2222 20.541 40.1714 20.5309Z" fill="black"/>
</g>
<g opacity="0.5">
<path d="M41.2737 19.7618C41.2737 19.798 41.263 19.8334 41.2429 19.8634C41.2228 19.8935 41.1942 19.9169 41.1608 19.9308C41.1274 19.9446 41.0907 19.9482 41.0552 19.9412C41.0197 19.9341 40.9871 19.9167 40.9616 19.8911C40.936 19.8656 40.9186 19.833 40.9115 19.7975C40.9045 19.762 40.9081 19.7253 40.9219 19.6919C40.9358 19.6585 40.9592 19.6299 40.9893 19.6098C41.0193 19.5897 41.0547 19.579 41.0909 19.579C41.1393 19.579 41.1859 19.5983 41.2202 19.6325C41.2544 19.6668 41.2737 19.7133 41.2737 19.7618Z" fill="white"/>
<path d="M41.7932 19.9447C41.8942 19.9447 41.9761 19.8628 41.9761 19.7619C41.9761 19.6609 41.8942 19.579 41.7932 19.579C41.6923 19.579 41.6104 19.6609 41.6104 19.7619C41.6104 19.8628 41.6923 19.9447 41.7932 19.9447Z" fill="white"/>
<path d="M41.2737 20.4642C41.2737 20.5004 41.263 20.5357 41.2429 20.5658C41.2228 20.5959 41.1942 20.6193 41.1608 20.6332C41.1274 20.647 41.0907 20.6506 41.0552 20.6436C41.0197 20.6365 40.9871 20.6191 40.9616 20.5935C40.936 20.5679 40.9186 20.5354 40.9115 20.4999C40.9045 20.4644 40.9081 20.4277 40.9219 20.3942C40.9358 20.3608 40.9592 20.3323 40.9893 20.3122C41.0193 20.2921 41.0547 20.2814 41.0909 20.2814C41.1394 20.2814 41.1859 20.3006 41.2202 20.3349C41.2545 20.3692 41.2737 20.4157 41.2737 20.4642Z" fill="white"/>
<path d="M41.9761 20.4642C41.9761 20.5004 41.9654 20.5357 41.9453 20.5658C41.9252 20.5959 41.8966 20.6193 41.8632 20.6332C41.8298 20.647 41.793 20.6506 41.7576 20.6436C41.7221 20.6365 41.6895 20.6191 41.6639 20.5935C41.6384 20.5679 41.621 20.5354 41.6139 20.4999C41.6068 20.4644 41.6105 20.4277 41.6243 20.3942C41.6381 20.3608 41.6616 20.3323 41.6916 20.3122C41.7217 20.2921 41.7571 20.2814 41.7932 20.2814C41.8417 20.2814 41.8882 20.3006 41.9225 20.3349C41.9568 20.3692 41.9761 20.4157 41.9761 20.4642Z" fill="white"/>
</g>
<path d="M16.624 2.84509C16.7564 2.72363 16.8356 2.55496 16.8446 2.37555C16.8535 2.19614 16.7915 2.02042 16.6719 1.88638L9.65159 8.33419L9.44652 8.42306C9.46019 8.44015 9.47045 8.45723 9.48583 8.47432C9.60846 8.60775 9.77905 8.68702 9.96011 8.69471C10.1412 8.7024 10.3179 8.63788 10.4514 8.51534L16.624 2.84509Z" fill="#263238"/>
<path opacity="0.5" d="M1.59226 16.2243C1.58134 16.2244 1.57052 16.2221 1.56051 16.2178C1.5505 16.2134 1.54151 16.207 1.53411 16.199C1.52671 16.1909 1.52107 16.1814 1.51755 16.1711C1.51403 16.1607 1.5127 16.1498 1.51365 16.1389L1.84006 12.8167C1.84126 12.8051 1.84507 12.7938 1.85118 12.7838C1.8573 12.7738 1.86558 12.7653 1.87541 12.7589C1.88524 12.7525 1.89637 12.7484 1.908 12.7469C1.91962 12.7454 1.93144 12.7465 1.94259 12.7501L2.23995 12.8492C2.41956 12.9058 2.57162 13.0274 2.66642 13.1901C2.76122 13.3529 2.79196 13.5451 2.75263 13.7293L2.34248 15.6262C2.30608 15.7974 2.21137 15.9506 2.07454 16.0597C1.9377 16.1688 1.76724 16.227 1.59226 16.2243Z" fill="white"/>
<g opacity="0.2">
<path d="M3.44304 14.0301C3.44236 13.9964 3.44832 13.9629 3.46058 13.9316C3.47283 13.9002 3.49115 13.8716 3.51448 13.8473C3.53781 13.823 3.56569 13.8036 3.59654 13.7901C3.62738 13.7766 3.66059 13.7693 3.69425 13.7686L44.3105 12.9808C44.3782 12.9803 44.4435 13.0063 44.4923 13.0532C44.5412 13.1002 44.5697 13.1643 44.572 13.232C44.5729 13.3002 44.5468 13.3659 44.4994 13.4149C44.452 13.4639 44.3872 13.4921 44.319 13.4935L3.70451 14.2813C3.67078 14.2822 3.63721 14.2764 3.60575 14.2642C3.57429 14.2521 3.54556 14.2337 3.52123 14.2104C3.49691 14.187 3.47747 14.159 3.46404 14.1281C3.45062 14.0971 3.44348 14.0638 3.44304 14.0301Z" fill="white"/>
</g>
<path d="M29.0822 9.22968L36.6408 9.09809C36.8338 9.09482 37.0239 9.05041 37.1983 8.96783C37.3728 8.88524 37.5276 8.76639 37.6525 8.6192C37.7774 8.47201 37.8694 8.29987 37.9224 8.11428C37.9755 7.92869 37.9883 7.73391 37.9601 7.54297L37.215 2.45718C37.1933 2.31304 37.1214 2.18119 37.0119 2.08489C36.9025 1.98859 36.7626 1.93403 36.6169 1.93082C35.3061 1.90006 33.9919 1.87785 32.9478 1.87785C32.4351 1.87785 32.0027 1.87785 31.6558 1.89494C30.9723 1.91886 29.8939 1.99576 28.631 2.10172C28.484 2.11368 28.3462 2.17808 28.2427 2.28316C28.1391 2.38825 28.0768 2.52703 28.0671 2.67421L27.7133 7.77879C27.7003 7.96574 27.7262 8.15335 27.7893 8.32981C27.8524 8.50626 27.9514 8.66773 28.08 8.80404C28.2086 8.94034 28.364 9.04854 28.5365 9.1218C28.709 9.19505 28.8948 9.23179 29.0822 9.22968Z" fill="#263238"/>
<path d="M44.249 8.04025L41.8565 2.43495C41.8117 2.32898 41.7376 2.23804 41.6428 2.17292C41.548 2.1078 41.4365 2.07123 41.3216 2.06753C40.9029 2.05386 40.3697 2.03506 39.7681 2.01797C39.6778 2.01498 39.5878 2.03189 39.5047 2.0675C39.4216 2.10312 39.3473 2.15658 39.2872 2.22408C39.227 2.29158 39.1824 2.37148 39.1566 2.45812C39.1307 2.54477 39.1242 2.63604 39.1375 2.72547L39.898 7.85227C39.9486 8.17734 40.1146 8.47327 40.3658 8.68578C40.6169 8.89829 40.9362 9.01313 41.2652 9.00922L43.5961 8.96991C43.7505 8.97094 43.9009 8.92137 44.0243 8.82877C44.1478 8.73618 44.2375 8.60567 44.2797 8.45723C44.3133 8.31844 44.3025 8.17262 44.249 8.04025Z" fill="#263238"/>
<path d="M25.4746 2.38369C22.7061 2.64345 19.8967 2.93397 18.7004 3.06727C18.3132 3.10738 17.9493 3.27163 17.6631 3.53551L13.4711 7.38574C13.2917 7.55261 13.1671 7.76992 13.1138 8.00901C13.0605 8.24811 13.0809 8.49775 13.1723 8.72503C13.2637 8.9523 13.4219 9.14652 13.6259 9.28207C13.83 9.41762 14.0703 9.48814 14.3153 9.48431L24.4749 9.31342C24.8144 9.30778 25.1395 9.17487 25.3857 8.94099C25.6319 8.70712 25.7814 8.38933 25.8044 8.05052L26.1462 3.04505C26.1531 2.95557 26.1403 2.86567 26.1088 2.78162C26.0773 2.69758 26.0279 2.62142 25.964 2.55845C25.9 2.49548 25.8231 2.44722 25.7386 2.41704C25.6541 2.38686 25.564 2.37548 25.4746 2.38369Z" fill="#263238"/>
<path d="M37.0749 10.5524L35.3095 10.5866C35.2424 10.5879 35.1785 10.6155 35.1316 10.6634C35.0846 10.7114 35.0583 10.7758 35.0583 10.8429C35.0583 10.877 35.0651 10.9108 35.0783 10.9422C35.0915 10.9737 35.1108 11.0021 35.1352 11.026C35.1595 11.0499 35.1884 11.0687 35.2201 11.0812C35.2518 11.0938 35.2857 11.0999 35.3198 11.0993L37.0851 11.0651C37.1522 11.0637 37.2161 11.0361 37.2631 10.9882C37.31 10.9403 37.3363 10.8758 37.3363 10.8087C37.3363 10.7746 37.3295 10.7409 37.3163 10.7094C37.3031 10.678 37.2838 10.6495 37.2594 10.6256C37.2351 10.6018 37.2062 10.583 37.1745 10.5704C37.1428 10.5578 37.1089 10.5517 37.0749 10.5524Z" fill="#263238"/>
<path d="M24.6902 11.0531C24.6902 11.019 24.6834 10.9853 24.6702 10.9538C24.657 10.9224 24.6377 10.8939 24.6133 10.87C24.589 10.8461 24.5601 10.8274 24.5284 10.8148C24.4967 10.8022 24.4628 10.7961 24.4287 10.7968L22.6634 10.8309C22.5963 10.8323 22.5324 10.8599 22.4855 10.9078C22.4385 10.9557 22.4122 11.0202 22.4122 11.0873C22.4122 11.1214 22.419 11.1551 22.4322 11.1866C22.4454 11.218 22.4647 11.2465 22.4891 11.2704C22.5134 11.2943 22.5423 11.313 22.574 11.3256C22.6057 11.3382 22.6396 11.3443 22.6737 11.3436L24.439 11.3094C24.5062 11.3085 24.5704 11.2811 24.6175 11.2331C24.6645 11.185 24.6907 11.1203 24.6902 11.0531Z" fill="#263238"/>
<g opacity="0.2">
<path d="M2.13741 18.4203C2.32567 18.0192 2.57087 17.6474 2.86542 17.3164L0.727539 17.3574C0.583199 17.3595 0.44163 17.3176 0.32166 17.2374C0.20169 17.1571 0.109004 17.0422 0.0559274 16.9079C0.00327494 17.1382 -0.00944231 17.3757 0.0183306 17.6103L0.156755 18.7416C0.222393 19.2778 0.493099 19.7678 0.912104 20.1088L1.00097 20.1805C1.30849 20.4316 1.68151 20.5894 2.07589 20.6351C2.01095 19.931 1.95968 18.851 2.13741 18.4203Z" fill="black"/>
<path d="M36.6408 21.0162C36.5878 20.3138 36.5519 19.3449 36.7177 18.9398C36.9928 18.2665 37.861 17.2702 38.671 16.6208L10.4121 17.1694C10.7792 17.7169 11.0787 18.3067 11.3041 18.9262C11.4203 19.2919 11.3862 20.1703 11.3486 20.7496L36.6408 21.0162Z" fill="black"/>
<path d="M45.8844 19.4474C45.9606 19.8257 45.9859 20.2125 45.9596 20.5975C46.1537 20.4548 46.3263 20.285 46.4723 20.0934L46.7098 19.7721C47.0273 19.3447 47.1987 18.8263 47.1986 18.2939V17.4685C47.1984 17.0135 47.0737 16.5673 46.838 16.1782L46.6141 15.8176C46.6028 15.9933 46.5265 16.1584 46.4002 16.281C46.2739 16.4035 46.1065 16.4747 45.9306 16.4807L44.0695 16.5166C44.8624 17.3639 45.4793 18.36 45.8844 19.4474Z" fill="black"/>
</g>
<g opacity="0.2">
<path d="M12.8986 18.6237C12.8986 18.533 12.9346 18.4461 12.9987 18.382C13.0628 18.3179 13.1497 18.2819 13.2404 18.2819L34.9934 17.853C35.084 17.853 35.171 17.889 35.2351 17.9531C35.2992 18.0172 35.3352 18.1041 35.3352 18.1948C35.3352 18.2854 35.2992 18.3723 35.2351 18.4364C35.171 18.5005 35.084 18.5365 34.9934 18.5365L13.2301 18.9586C13.1424 18.956 13.0591 18.9198 12.9974 18.8575C12.9357 18.7951 12.9003 18.7114 12.8986 18.6237Z" fill="white"/>
</g>
<path opacity="0.6" d="M14.6656 6.28177L13.4694 7.3789C13.2873 7.54536 13.1605 7.7634 13.1057 8.00389C13.0509 8.24438 13.0708 8.49586 13.1628 8.72472C13.2547 8.95359 13.4143 9.14894 13.6203 9.28468C13.8262 9.42041 14.0687 9.49005 14.3153 9.48431H14.669L14.6656 6.28177Z" fill="black"/>
<path d="M16.2993 6.56716H15.6961C15.5511 6.56716 15.412 6.62477 15.3094 6.72733C15.2068 6.82988 15.1492 6.96898 15.1492 7.11402V7.95481L14.1444 8.14963C14.0836 8.16121 14.0288 8.19369 13.9895 8.24145C13.9501 8.28921 13.9288 8.34923 13.9291 8.4111V8.64864C13.9288 8.69197 13.9392 8.73468 13.9593 8.77306C13.9794 8.81143 14.0086 8.84429 14.0444 8.86875C14.0802 8.89321 14.1214 8.90852 14.1644 8.91335C14.2075 8.91818 14.2511 8.91237 14.2913 8.89644L15.2501 8.5256C15.3109 8.6166 15.3977 8.68723 15.4992 8.72836C15.6006 8.7695 15.7121 8.77923 15.8191 8.7563L16.3882 8.62984C16.4743 8.61018 16.5512 8.562 16.6064 8.49313C16.6616 8.42426 16.6919 8.33874 16.6924 8.25046V6.95509C16.6924 6.90371 16.6822 6.85284 16.6624 6.80544C16.6426 6.75803 16.6135 6.71504 16.577 6.67895C16.5404 6.64286 16.497 6.6144 16.4494 6.5952C16.4017 6.57601 16.3507 6.56648 16.2993 6.56716Z" fill="white"/>
</svg>
