<svg width="13" height="15" viewBox="0 0 13 15" fill="none" xmlns="http://www.w3.org/2000/svg">
<path d="M11.9166 9.07607V5.7561C11.9166 2.98947 10.8333 1.88281 8.12492 1.88281H4.87492C2.16659 1.88281 1.08325 2.98947 1.08325 5.7561V9.07607C1.08325 11.8427 2.16659 12.9494 4.87492 12.9494H8.12492C10.8333 12.9494 11.9166 11.8427 11.9166 9.07607Z" stroke="#727891" stroke-linecap="round" stroke-linejoin="round"/>
<path d="M1.36499 4.71094H11.635" stroke="#727891" stroke-linecap="round" stroke-linejoin="round"/>
<path d="M4.61499 1.94531V4.63448" stroke="#727891" stroke-linecap="round" stroke-linejoin="round"/>
<path d="M8.38501 1.94531V4.38549" stroke="#727891" stroke-linecap="round" stroke-linejoin="round"/>
<path d="M5.28125 8.77284V8.10884C5.28125 7.25672 5.87167 6.90812 6.59208 7.33418L7.15542 7.66618L7.71875 7.99818C8.43917 8.42424 8.43917 9.12143 7.71875 9.54749L7.15542 9.87949L6.59208 10.2115C5.87167 10.6375 5.28125 10.289 5.28125 9.43683V8.77284V8.77284Z" stroke="#727891" stroke-miterlimit="10" stroke-linecap="round" stroke-linejoin="round"/>
</svg>
