<svg width="15" height="15" viewBox="0 0 15 15" fill="none" xmlns="http://www.w3.org/2000/svg">
<path d="M7.5 9.375C8.53553 9.375 9.375 8.53553 9.375 7.5C9.375 6.46447 8.53553 5.625 7.5 5.625C6.46447 5.625 5.625 6.46447 5.625 7.5C5.625 8.53553 6.46447 9.375 7.5 9.375Z" stroke="white" stroke-miterlimit="10" stroke-linecap="round" stroke-linejoin="round"/>
<path d="M1.25 8.05088V6.95088C1.25 6.30088 1.78125 5.76338 2.4375 5.76338C3.56875 5.76338 4.03125 4.96338 3.4625 3.98213C3.1375 3.41963 3.33125 2.68838 3.9 2.36338L4.98125 1.74463C5.475 1.45088 6.1125 1.62588 6.40625 2.11963L6.475 2.23838C7.0375 3.21963 7.9625 3.21963 8.53125 2.23838L8.6 2.11963C8.89375 1.62588 9.53125 1.45088 10.025 1.74463L11.1063 2.36338C11.675 2.68838 11.8687 3.41963 11.5437 3.98213C10.975 4.96338 11.4375 5.76338 12.5688 5.76338C13.2188 5.76338 13.7563 6.29463 13.7563 6.95088V8.05088C13.7563 8.70088 13.225 9.23838 12.5688 9.23838C11.4375 9.23838 10.975 10.0384 11.5437 11.0196C11.8687 11.5884 11.675 12.3134 11.1063 12.6384L10.025 13.2571C9.53125 13.5509 8.89375 13.3759 8.6 12.8821L8.53125 12.7634C7.96875 11.7821 7.04375 11.7821 6.475 12.7634L6.40625 12.8821C6.1125 13.3759 5.475 13.5509 4.98125 13.2571L3.9 12.6384C3.33125 12.3134 3.1375 11.5821 3.4625 11.0196C4.03125 10.0384 3.56875 9.23838 2.4375 9.23838C1.78125 9.23838 1.25 8.70088 1.25 8.05088Z" stroke="white" stroke-miterlimit="10" stroke-linecap="round" stroke-linejoin="round"/>
</svg>
