<svg width="15" height="15" viewBox="0 0 15 15" fill="none" xmlns="http://www.w3.org/2000/svg">
<path d="M13.5376 6.52409L12.9251 9.13659C12.4001 11.3928 11.3626 12.3053 9.41261 12.1178C9.10011 12.0928 8.76261 12.0366 8.40011 11.9491L7.35011 11.6991C4.74386 11.0803 3.93761 9.79284 4.55011 7.18034L5.16261 4.56159C5.28761 4.03034 5.43761 3.56784 5.62511 3.18659C6.35636 1.67409 7.60011 1.26784 9.68761 1.76159L10.7314 2.00534C13.3501 2.61784 14.1501 3.91159 13.5376 6.52409Z" stroke="white" stroke-linecap="round" stroke-linejoin="round"/>
<path d="M9.41241 12.1187C9.02491 12.3812 8.53741 12.6 7.94366 12.7937L6.95616 13.1187C4.47491 13.9187 3.16866 13.25 2.36241 10.7687L1.56241 8.3C0.762408 5.81875 1.42491 4.50625 3.90616 3.70625L4.89366 3.38125C5.14991 3.3 5.39366 3.23125 5.62491 3.1875C5.43741 3.56875 5.28741 4.03125 5.16241 4.5625L4.54991 7.18125C3.93741 9.79375 4.74366 11.0812 7.34991 11.7L8.39991 11.95C8.76241 12.0375 9.09991 12.0937 9.41241 12.1187Z" stroke="white" stroke-linecap="round" stroke-linejoin="round"/>
<path d="M7.90009 5.33203L10.9313 6.10078" stroke="white" stroke-linecap="round" stroke-linejoin="round"/>
<path d="M7.2876 7.75L9.1001 8.2125" stroke="white" stroke-linecap="round" stroke-linejoin="round"/>
</svg>
